<svg xmlns="http://www.w3.org/2000/svg" id="Ebene_2" data-name="Ebene 2" viewBox="0 0 1731.67 609.2"><defs><style>.cls-1{fill:#fff;stroke:#f0f;stroke-miterlimit:10}</style></defs><g id="Ebene_1-2" data-name="Ebene 1"><g id="line1"><path d="M64.93 97.23c-9.28 46.25 5.28 84.94 18.17 117.94 15.59 39.92 31.76 80.89 69.85 97.62 32.49 14.27 63.5 5.46 88.74-18.27 23.5-22.01 42.49-48.17 69.88-67.67 38.8-27.73 87.33-44.91 134.83-44.38 25.37.35 50.19 6.18 73.89 15.1 90.79 33.72 99.22 92.1 112.85 178.73 4.54 27.72 9.76 56.48 16.11 84.29 4.37 19.09 8.86 36.85 16.32 54.22C688.1 570.34 741.9 591.24 798 593.9c46.01 2 98.14-2.68 140.03-21.01 28.32-12.73 52.73-31.24 78.32-49.62 26.66-19.33 54.47-39.24 80.52-58.67 28.43-20.96 56.11-42.92 86.66-60.77 47.14-27.49 103.31-42.73 158.27-40.74 90.33 2.47 153.54 50.53 207.74 120.5 10.36 13.51 19.91 27.91 28.8 42.31 22.14 34.32 39.15 72.16 78.22 79.61 25.68 4.14 53.56-10.8 64.82-34.87 7.74-15.95 8.51-33.7 6.02-51.91-13.09-80.88-82.84-168.71-147.34-216.97-96.64-71.84-202.23-95.01-319.13-66.28-99.05 23.93-121.09 55.66-196.45 114.13-31.21 23.45-63.03 46.24-93.64 70.12-33.89 26.25-71.79 53.74-115.95 54.83-23.06.87-46.82-5.43-65.2-19.81-35.16-26.87-38.28-73.44-30.68-114.96 4.91-30.07 10.7-61 8.8-91.58-2.72-63.21-44.88-118.29-93.58-153.5C636.85 68 595.21 56.44 550.1 48.49c-17.24-2.9-34.64-4.86-52.12-5.35-60.97-2.69-123.35 19.57-170.41 58.63-25.29 20.15-45.99 43.31-68.95 65.46-12.88 12.28-26.91 23.42-43.67 27.55-18.09 4.59-39.49 1.2-51.88-13.86-13-14.99-15.46-38.64-15.94-59.09-.69-29.58-3.88-41.57-9.18-48.8-1.73-2.36-3.43-3.8-5.12-5.4-9.98-9.39-28.22-20.97-41.06-18.2-18.06 3.9-24.5 36.01-26.86 47.78Z" style="stroke-miterlimit:10;stroke:#7a6fb9;stroke-width:6px;fill:#9e005d"/><path d="M3.02 54.77c.95 34.18 14.45 67.62 25.2 100.46 7.53 21.97 14.94 43.82 29.08 62.22 28.54 37.3 78.96 56.62 124.67 46.07 41.67-9.48 75.07-38.53 112.64-57.2 64.16-32.37 145.58-46.77 215.04-17.7 33.5 15.04 66.61 35.6 88.34 65.57 19.21 26.52 25.29 59.18 29.98 90.93 10.53 63.12 16.35 143.95 57.02 194.57 30.93 39.47 78.59 53.82 127.47 51.79 44.11-1.69 83.55-16.76 122.95-36.16 36.2-18.03 72.24-40.78 105.43-65.44 36.19-26.51 65.77-53.6 101.77-77.53 50.96-33.28 114.4-54.01 175.21-61.28 63.78-7.47 129.22 9.19 173.74 56.49 24.21 25.58 41.65 59.89 58.98 90.76 16.68 29.37 35.68 60.67 66.84 74.25 42.39 18.38 84.59-3.14 81.83-52.22-2.45-60.09-71.26-155.09-114.73-197.1-39.67-39.1-89.31-65.96-143.3-71.02-41.14-4.03-83.45-2.01-125.05 2.33-70.3 7.11-131.61 28.63-191.68 64.34-52.66 30.69-100.58 69.34-148.94 105.45-46.99 35.47-103.41 70.92-165.25 53.54-62.41-17.4-78.92-73.81-61.53-131.62 7.86-29.06 18.61-58.49 20.75-88.63 3.81-42.33-14.93-80.64-45.13-109.85-42.68-41.65-98.81-66.16-155.09-84.18-70.82-22.5-139.42-22.58-206.39 11.93-39.63 19.93-74.94 47.42-111.71 72.12-19.49 12.82-38.41 25.69-59.64 32.24-28.21 8.72-53.88 2.98-59.3-31.19-2.28-13-2.47-26.47-3.24-39.84-1.16-19.52-1.8-39.65-9.05-58.03-8.99-23.19-28.23-40.39-51.97-45.93C49.68.22 27.61 4.14 15.25 17.07 5.65 27.18 2.71 40.15 3.02 54.61z" style="stroke-miterlimit:10;fill:none;stroke:#7a6fb9;stroke-width:6px"/><path d="M334.36 103.45c1.28-.41 2.55-.81 3.83-1.2-12.74 24.32-22.85 49.26-30.37 74.36-2.18 1.05-4.37 2.13-6.55 3.23 5.57-19.5 12.67-38.93 21.34-58.07-3.11 1.15-6.23 2.34-9.35 3.57.76-1.75 1.53-3.51 2.31-5.26.94-.36 1.88-.72 2.83-1.07 2.93-1.1 5.75-3.08 8.54-5.96 3.13-3.23 5.6-6.41 7.42-9.6ZM328.89 159.7c2.22-.88 4.43-1.73 6.65-2.55q-1.74 4.575-3.36 9.18c-2.18.86-4.37 1.75-6.55 2.66 1.04-3.1 2.13-6.19 3.26-9.28ZM398.78 89.58c2.08-.3 4.16-.59 6.23-.85-14.6 21.17-26.76 43.15-36.46 65.48-1.89.52-3.77 1.05-5.66 1.6.78-1.85 1.57-3.69 2.38-5.53-3.95 4.8-7.62 7.79-11.21 8.94-3.96 1.28-6.47.74-7.48-1.74-1.51-3.72-.75-9.43 2.61-17.06 3.61-8.17 8.26-14.87 13.7-19.98 4.42-4.15 8.53-6.6 12.18-7.41 4.46-.98 6.63.54 6.57 4.42 5.26-9.4 10.97-18.7 17.13-27.85Zm-33.73 34.79c-3.36 3.17-6.54 7.87-9.37 14.06-2.7 5.93-3.51 10.06-2.64 12.35.55 1.46 1.79 1.89 3.7 1.3 2.3-.7 4.65-2.33 7.13-4.87 3.4-3.5 6.41-7.96 9.14-13.44 2.73-5.47 3.84-9.48 3.12-12.06-.48-1.72-1.81-2.34-4.02-1.83-2.01.47-4.38 1.96-7.07 4.5ZM421.45 106.09c-1.78 2.62-3.53 5.25-5.23 7.9-.63-.15-1.63-.16-3 0-2.94.35-6.71 2.28-11.16 5.88-3.77 3.05-6.87 6.18-9.29 9.33-3.92 7.16-7.58 14.38-10.96 21.65-1.88.43-3.75.89-5.63 1.35 6.52-14.42 14.1-28.69 22.72-42.66 2-.31 4-.6 6-.88q-3.27 5.175-6.36 10.41c2.15-2.15 4.29-4.05 6.39-5.69 5.6-4.38 11.19-6.81 16.53-7.3ZM427.04 109.29c3.92-2.76 7.99-4.23 12.09-4.41 4.88-.21 7.42.98 7.69 3.4.24 2.21-.71 4.78-2.8 7.72-5.07 7.13-9.83 14.37-14.26 21.69-1.55 2.56-1.98 4.48-1.33 5.74-2.18.19-4.37.4-6.57.64-.2-.86.31-2.36 1.54-4.48-4.83 3.81-9.27 6.04-13.51 6.66-3.5.51-5.55-.26-6.12-2.41-.52-1.93 0-4.37 1.63-7.31 1.89-3.42 4.36-6.35 7.37-8.74 3.34-2.65 7-4.51 10.89-5.53 2.59-.68 4.97-1.43 7.15-2.25 2.94-.88 5.12-1.66 6.55-2.4 1.26-1.84 1.82-3.41 1.64-4.73s-1.33-1.94-3.45-1.82c-2.71.15-5.13.98-7.25 2.48-1.41 1-2.86 2.34-4.32 4.03-2.12.19-4.25.4-6.38.63 2.71-3.41 5.86-6.39 9.43-8.9Zm5.9 14.89c-1.44.54-2.7.97-3.79 1.27-3.81 1.19-6.71 2.14-8.7 2.79-1.81.64-3.38 1.48-4.7 2.53-1.66 1.32-2.9 2.7-3.73 4.15-.97 1.69-1.31 3.08-1.05 4.15.16.65 1.17.84 3.03.6 3.16-.41 6.49-2.01 10.09-4.8 2.29-1.77 3.76-3 4.39-3.71 1.45-2.33 2.94-4.66 4.46-6.97ZM458.04 105.22c2.01.02 4.02.05 6.02.1A356 356 0 0 0 450 133.04c8.49-9.39 17.63-18.46 27.39-27.13 2.07.13 4.12.28 6.17.44a351 351 0 0 0-14.65 26.86c8.61-8.88 17.85-17.42 27.69-25.56 1.93.23 3.84.47 5.76.73-13.67 10.8-26.23 22.37-37.63 34.55-1.66-.04-3.33-.07-5.01-.08 4.35-9.91 9.25-19.76 14.69-29.5a347 347 0 0 0-28.54 29.67c-1.7.06-3.4.13-5.11.22a355 355 0 0 1 17.29-38.03ZM508.07 109.21q2.715.42 5.4.87c-10.55 10.69-20.16 21.84-28.8 33.31-1.71-.15-3.43-.29-5.15-.41 8.55-11.62 18.08-22.92 28.55-33.77Zm17.03-16.47c1.85.36 3.68.74 5.51 1.13-2.67 2.36-5.3 4.75-7.87 7.17-1.81-.35-3.64-.69-5.46-1.01 2.56-2.46 5.16-4.89 7.82-7.29ZM497.89 144.83c-1.68-.22-3.36-.43-5.05-.62 8.78-11.25 18.51-22.15 29.18-32.58 1.77.35 3.53.7 5.29 1.08q-2.88 2.745-5.67 5.55c7.23-3.48 12.72-4.67 16.17-3.82 3.46.85 5.01 2.63 4.72 5.26-.19 1.76-1.34 3.6-3.41 5.54a314 314 0 0 0-21.9 22.75c-1.63-.32-3.26-.62-4.9-.92a314 314 0 0 1 20.07-21.46c1.67-1.62 2.57-3.09 2.69-4.41.11-1.32-.77-2.21-2.66-2.65-1.72-.4-4.41.12-7.99 1.61-5.38 2.24-9.56 5.05-12.54 8.3a322 322 0 0 0-14 16.37ZM555.63 123.09c3.98-1.28 7.4-1.43 10.19-.48 2.62.89 3.88 2.51 3.81 4.79 3.6-1.02 6.55-1.07 8.78-.21.72.28 1.43.56 2.14.84-1.94 1.45-3.85 2.93-5.74 4.41-.9-1.5-2.94-2.39-6.13-2.61-.66 1.84-2.16 3.72-4.47 5.67-3.46 2.93-7.02 5.04-10.77 6.34-3.41 1.19-6.58 1.36-9.61.51-1.59-.45-2.83-1.35-3.71-2.71-1.53.49-2.64 1.1-3.34 1.81-.53.53-.81 1.02-.83 1.46-.07 1.1 1.25 2.1 3.94 3.05 2.36.87 4.86 1.81 7.49 2.82 1.2.81 1.74 1.77 1.64 2.86-.17 1.75-1.2 3.57-3.07 5.46-2.04 2.07-4.3 3.63-6.83 4.71-3.47 1.47-7.97 1.47-13.69.14-4.8-1.11-7.27-2.79-7.28-5.21 0-1.54.79-3.25 2.41-5.11 1.14-1.31 2.52-2.33 4.16-3.08 1.3-.59 2.94-1.11 4.9-1.53-.15-.48-.2-1.16-.16-2.04.04-1.1.75-2.37 2.15-3.82 1.74-1.8 4.65-3.22 8.71-4.15.2-2.41 1.67-4.95 4.49-7.55 3.19-2.95 6.81-5.08 10.79-6.37Zm-23.66 26.17c-1.45.09-2.67.35-3.64.78-1.31.58-2.37 1.33-3.19 2.25s-1.23 1.82-1.25 2.7c-.02 1.32 1.55 2.32 4.67 3.07 4.21 1.01 7.37 1.09 9.61.15 1.28-.54 2.26-1.16 2.92-1.86q1.005-1.05 1.08-2.04c.06-.87-.68-1.54-2.24-1.97-3.57-1.21-6.25-2.22-7.97-3.09Zm24.39-22.18c-2.51.81-4.71 2.08-6.6 3.79s-2.88 3.23-3.02 4.55c-.14 1.31.44 2.16 1.72 2.54 1.44.43 3.01.34 4.74-.26 2.07-.72 4.14-1.98 6.24-3.8 1.91-1.65 3-3.23 3.24-4.76.17-1.09-.47-1.88-1.94-2.36-1.14-.37-2.61-.27-4.4.3ZM601.54 141.19c3.89-.75 7.41-.3 10.47 1.32 3.64 1.93 5.03 4.08 4.31 6.39-.67 2.1-2.34 3.99-4.96 5.73-6.37 4.22-12.48 8.64-18.32 13.22-2.04 1.6-3.04 3.13-3.04 4.55-1.63-.8-3.28-1.59-4.93-2.37.16-.86 1.06-1.97 2.71-3.31-4.84 1.24-8.81 1.22-12.07-.17-2.69-1.15-3.9-2.77-3.55-4.94.31-1.95 1.55-3.88 3.76-5.75 2.58-2.18 5.42-3.67 8.46-4.45 3.38-.86 6.71-.89 9.9-.08 2.13.54 4.13.92 6.01 1.14 2.45.51 4.32.76 5.64.72 1.6-1.1 2.6-2.27 2.97-3.54s-.23-2.32-1.82-3.14c-2.03-1.05-4.1-1.36-6.19-.95-1.4.27-2.95.84-4.63 1.71-1.61-.77-3.23-1.52-4.86-2.27 3.22-1.85 6.62-3.12 10.16-3.8Zm-1.26 15.96c-1.24-.15-2.31-.32-3.21-.53-3.19-.62-5.63-1.06-7.31-1.36-1.54-.24-2.98-.18-4.31.15-1.68.43-3.07 1.1-4.18 2.02-1.3 1.07-2.05 2.15-2.24 3.23-.12.65.54 1.28 1.97 1.91 2.42 1.07 5.38 1.14 8.99.25 2.29-.56 3.8-1.01 4.51-1.37 1.9-1.45 3.83-2.88 5.78-4.29ZM647.72 142.25c1.39.93 2.77 1.86 4.14 2.8-19.37 9.14-36.98 20-52.63 32.11-1.32-.71-2.64-1.41-3.98-2.11 15.59-12.33 33.14-23.42 52.47-32.81ZM638.57 162.58c3.76-.3 6.76.37 8.94 1.94 2.05 1.48 2.73 3.33 2.1 5.53 3.37-.15 5.94.48 7.66 1.83.55.43 1.1.87 1.64 1.3-2.05.96-4.08 1.94-6.08 2.95-.4-1.66-1.94-2.99-4.64-3.94-1.03 1.63-2.8 3.1-5.27 4.45-3.71 2.03-7.29 3.23-10.82 3.61-3.22.34-5.98-.24-8.36-1.8-1.26-.82-2.11-1.99-2.53-3.52-1.43.11-2.53.43-3.3.94-.58.39-.94.79-1.06 1.21-.33 1.05.57 2.34 2.64 3.91 1.81 1.41 3.73 2.92 5.73 4.53.83 1.08 1.06 2.13.71 3.17-.57 1.66-1.89 3.17-3.94 4.56-2.23 1.52-4.53 2.49-6.93 2.92-3.3.59-7.11-.51-11.66-3.21-3.82-2.26-5.53-4.5-4.98-6.85.35-1.49 1.42-2.95 3.23-4.35a10.2 10.2 0 0 1 4.27-1.95c1.25-.25 2.77-.35 4.55-.28-.01-.5.1-1.17.35-2.01.3-1.05 1.2-2.12 2.74-3.18 1.92-1.32 4.75-1.99 8.46-1.91.75-2.29 2.62-4.39 5.68-6.24 3.46-2.09 7.11-3.3 10.87-3.6Zm-26.65 19.67c-1.26-.27-2.36-.31-3.3-.13-1.25.24-2.33.71-3.25 1.4-.91.69-1.47 1.46-1.69 2.31-.32 1.27.78 2.63 3.26 4.12 3.34 2.01 6.02 2.86 8.14 2.49 1.21-.22 2.19-.58 2.93-1.09q1.11-.78 1.41-1.71c.26-.83-.21-1.66-1.44-2.45-2.76-2.03-4.81-3.66-6.07-4.93Zm26.3-15.63c-2.37.19-4.58.9-6.62 2.1-2.04 1.21-3.27 2.44-3.7 3.69-.44 1.24-.14 2.19.87 2.87 1.14.76 2.5 1.05 4.14.88 1.95-.2 4.04-.94 6.3-2.21 2.05-1.15 3.38-2.42 3.97-3.84.41-1.01.06-1.93-1.09-2.74-.89-.63-2.19-.88-3.88-.74ZM659.3 179.67c4.96-.05 8.76 1.11 11.28 3.35 2.51 2.24 2.94 4.83 1.38 7.72-1.77 3.28-5.4 6.1-10.71 8.65-5.31 2.56-10.46 4-15.59 4.32-4.53.29-7.96-.47-10.42-2.38s-3.17-4.38-2.04-7.46c1.29-3.48 4.45-6.78 9.71-9.72 5.25-2.92 10.77-4.43 16.4-4.49Zm-.5 4.14c-3.92.05-7.95 1.17-12 3.36-4.05 2.2-6.46 4.47-7.34 6.71-.72 1.83-.4 3.28.95 4.34 1.35 1.07 3.38 1.5 6.14 1.34 3.37-.2 7.04-1.33 11.12-3.35s6.77-4.14 7.96-6.49c.79-1.56.53-2.94-.84-4.14-1.37-1.19-3.38-1.79-5.99-1.76ZM694.84 207.5c-2.4.78-4.77 1.6-7.12 2.45-.18-.51-.6-1.15-1.29-1.9-1.47-1.62-4.27-2.61-8.32-2.86-3.43-.21-6.59.05-9.46.76q-8.775 3.96-16.98 8.46c-1.02-.94-2.04-1.86-3.08-2.79 10.73-6.03 22.2-11.4 34.36-15.98 1.05 1.07 2.1 2.14 3.13 3.22-3.04 1.11-6.04 2.27-9 3.47 2.2-.17 4.26-.17 6.16-.02 5.06.41 8.99 2.19 11.61 5.19ZM696.78 210.72c.95 1.12 1.89 2.24 2.82 3.37-12.19 3.74-23.74 8.31-34.58 13.58-.92-.99-1.85-1.97-2.79-2.95 10.82-5.41 22.37-10.12 34.55-14.01Zm19.44-5.36c.95 1.2 1.89 2.4 2.81 3.61-2.98.66-5.92 1.37-8.83 2.12-.93-1.17-1.87-2.34-2.82-3.5 2.91-.79 5.86-1.54 8.83-2.23ZM718.12 217.83c.88 1.2 1.75 2.41 2.6 3.62-4.39.93-8.71 1.97-12.95 3.11 1.46 1.97 2.88 3.95 4.27 5.95-1.74.43-3.47.88-5.18 1.35-1.39-1.96-2.82-3.91-4.28-5.84-6.97 2.05-13.73 4.37-20.27 6.96-1.21.48-2.09 1.19-2.66 2.12-.46.74-.3 1.58.45 2.52 1.17 1.46 2.88 2.49 5.17 3.13-1.9.72-3.78 1.47-5.64 2.24-2.06-.66-3.62-1.64-4.7-2.97-1.66-2.05-2.04-3.91-1.05-5.6 1.09-1.89 2.83-3.35 5.23-4.34 6.72-2.76 13.68-5.26 20.86-7.45-1.06-1.35-2.13-2.7-3.22-4.04 1.72-.55 3.44-1.08 5.19-1.6 1.09 1.37 2.16 2.74 3.22 4.12 4.24-1.19 8.56-2.29 12.95-3.27ZM735.01 231.57c.78 1.27 1.55 2.53 2.31 3.81-8.99 1.2-17.72 2.88-26.15 4.99 6 .81 9.8 2.6 11.23 5.01 1.52 2.54 1.49 4.62.03 6.23-1.47 1.62-3.7 2.72-6.65 3.37-8.44 1.87-16.58 4.19-24.41 6.92-.68-1.08-1.37-2.15-2.07-3.23 7.33-2.64 14.95-4.94 22.83-6.84 2.31-.56 3.98-1.39 4.98-2.54.71-.83.76-1.77.1-2.84-.8-1.31-2.5-2.28-5.09-2.86-3.17-.71-7.09-.83-11.69-.25-6 1.82-11.84 3.85-17.5 6.1-.76-1.05-1.54-2.1-2.32-3.14 16.68-6.81 34.91-11.87 54.39-14.71ZM696.24 270.04c-.62-1.09-1.26-2.18-1.9-3.27 10.96-3.62 22.54-6.44 34.64-8.31.64 1.23 1.27 2.46 1.88 3.69-1.84.26-3.66.55-5.47.85 4.85.89 7.82 2.52 8.8 4.63 1.1 2.36.82 4.29-.77 5.78-.8.75-1.75 1.38-2.86 1.92 5.15 1.01 8.38 3.1 9.51 5.99.79 2.01.41 3.65-1.08 4.92-1.66 1.41-3.75 2.22-6.26 2.49-8.68.91-17.09 2.36-25.2 4.28q-.705-1.68-1.44-3.36c7.72-1.92 15.73-3.42 23.97-4.43 1.25-.15 2.2-.52 2.85-1.1.97-.87 1.26-1.8.86-2.79-.7-1.72-2.25-3.03-4.63-3.87-2.11-.74-3.9-.98-5.35-.74-7.39 1.22-14.57 2.81-21.52 4.74-.55-1.11-1.1-2.22-1.67-3.32 7.63-2.21 15.55-4.01 23.73-5.37 1.26-.21 2.35-.77 3.28-1.68.77-.77.88-1.76.29-2.98-.64-1.34-2.07-2.36-4.24-3.03-2.45-.75-4.52-.93-6.19-.58-7.31 1.51-14.39 3.38-21.24 5.56ZM741.28 295.47c3.03 1.37 4.99 3.51 5.8 6.29.89 3.05.3 5.26-1.64 6.66-1.77 1.27-3.9 1.93-6.37 2.02-.33-1.23-.66-2.45-1.01-3.68 1.41-.19 2.39-.48 2.91-.87 1.04-.79 1.28-2.18.68-4.17-.38-1.25-1.32-2.22-2.81-2.89-1.25-.56-2.49-.78-3.74-.68-.83.07-1.49.31-1.99.73-.67.56-1.09 2.16-1.33 4.78-.13 1.62-.35 3-.65 4.13-.33 1.01-.84 1.79-1.51 2.34-1.35 1.1-3.13 1.75-5.32 2-2.39.28-4.73-.01-7.04-.85-2.77-1-4.58-2.86-5.55-5.67s-.59-5.14 1.26-6.98c1.54-1.53 3.8-2.59 6.81-3.09.44 1.17.86 2.33 1.28 3.5-1.77.39-2.96.9-3.59 1.5-1.11 1.05-1.37 2.37-.82 3.98.66 1.95 1.67 3.17 3.07 3.69.93.34 2 .44 3.2.29.79-.1 1.61-.51 2.44-1.21.66-.57 1.03-1.4 1.1-2.51.13-2.22.31-3.91.56-5.06.17-1.38.65-2.44 1.47-3.16 1.47-1.29 3.23-2.06 5.32-2.25 2.7-.25 5.21.14 7.49 1.17Z" class="cls-1"/></g></g></svg>