<svg xmlns="http://www.w3.org/2000/svg" id="Ebene_2" data-name="Ebene 2" viewBox="0 0 2010.77 825.15"><defs><style>.line3-cls-3{stroke-miterlimit:10;fill:#fff;stroke:#9e005d}</style></defs><g id="Ebene_1-2" data-name="Ebene 1"><g id="line3"><path d="M59.87 78.93c21.91-20.31 75.11-69.62 129.19-49.22 27.41 10.34 43.12 32.92 46.47 41.41 14.57 36.95 12.95 78.15 16.53 117.15 2.64 31.84 13.08 62.34 27 91.21 12.72 26.25 27.4 52.39 48.54 72.21 16.43 15.67 36.68 26.95 57.35 35.98 34.04 14.64 67.48 25.97 105.06 30.57 72.77 8.31 126.46-2.45 178.07-56.66 17.82-18.41 34.37-39.27 49.58-59.96 11.26-14.92 19.3-29.08 32.99-40.8 11.1-9.25 27.07-14.78 41.21-10.75 37.83 11.77 32.7 74.07 29.96 106-2.89 28.31-7.42 58.66-8.56 87.13-2.94 57.08 20.55 114.81 62.01 153.92 29.12 28.53 68.65 41.91 107.5 51.78 28.16 6.83 57.61 12.48 84.99 14.58 38.48 2.71 81.97 2.05 121.22-.6 31.94-2.3 65.04-4.67 96.05-11.47 55.86-12.21 108.1-37.4 156.54-66.93 24.47-14.7 48.1-31.67 69.76-50.7 26-22.93 48.01-46.57 74.76-69.85 27.3-25.26 62.11-43.59 99.11-44.25 26.54-.6 52.53 10.92 72.42 28.22 16.98 15.21 27.1 35.84 36.58 56.62 9.47 21.26 17.44 43.06 24.97 65.1 10.02 28.78 18.12 57.09 32.96 83.12 15.42 26.55 39.56 49.36 68.26 60.12 17.87 6.94 37.03 8.79 53.88 18.36 13.78 7.51 24.44 21.7 25.31 37.58 1.65 24.65-19.3 44.89-42.09 50.67-27.11 7.28-54.17-1.21-78.55-14.19-45.79-25.06-76.66-56.88-93.96-106.14-12.24-35.93-17.4-81.03-28.34-117.98-6.28-21.02-12.89-41.77-32.99-53.17-27.6-16.9-65.82-17.55-93.11-.69-25.99 15.54-45.08 41.47-66.74 63.21-34.24 35.59-75.47 67.15-117.87 92.65-34.14 20.15-71.65 34.91-110.11 46.16-75.27 21.35-155.41 35.39-233.14 36.94-65.78.26-130.6-6.58-194.62-22.28-71.99-15.77-136.95-57.94-160.34-131.3-23.36-68.27 6.23-143.74 19.25-205.97 1.5-8.38 2.1-18.73-1.29-24.44-8.48-13.22-26.24-9.4-41.08-1.4-13.93 7.9-24.87 20.11-34.69 32.53-16.16 21.29-35.33 45.13-57.48 63.82-27.76 24.47-61.51 41.38-97.27 49.3-30.3 6.98-62.33 9.82-93.7 5.41-63.74-8.62-115.48-44.42-156.94-93.04-19.88-23.66-38.38-50.24-52.67-77.23-17.26-33-27.94-67.31-33.65-105.13-3.51-22.39-4.41-45.4-6.74-67.73-2.8-23.22-7.16-45.6-23.18-62.64-5.62-5.58-11.11-8.48-16.53-9.52-22.45-4.34-32.93 19.73-58.38 21-22.56 1.12-47.41-16.72-48.42-33.55-.55-9.14 5.99-16.9 14.89-25.14Z" style="fill:#f0f;stroke:#7a6fb9;stroke-width:6px;stroke-miterlimit:10"/><path d="M10.58 124.24c16.27 32.06 49.31 41.38 81.16 24.84 22.74-9.49 60.29-51.53 84.67-29.99 16.26 16.37 8.18 52.24 3.94 74.53-3.46 17.47-5.81 35.11-6.05 53.18-2.21 76.42 28.21 154.52 92.17 199.36 30.24 21.33 66.05 33.82 101.33 44.34 65.33 19.94 140.31 24.78 203.35-4.33 53.43-24.73 76.77-66.8 113.29-108.55 10.93-12.43 28.14-25.76 42.02-28.23 31.14-5.84 31.87 23.87 23.81 46.03-17.35 45.89-43.86 89.28-36.47 140.88 8.05 66.93 57.99 119.2 113.42 153.54 47.73 29.15 101.48 44.18 155.52 56.68 57 12.03 117.24 21.26 175.12 18.06 54.92-3.41 109.12-14.84 161.64-31.11 29.58-8.97 61.4-19.28 89.18-30.28 27.88-10.93 53.51-24.37 75.64-44.48 21.51-19.14 39.18-43.04 54.95-67.06 12.75-19.41 25.09-39.13 41.58-55.57 22.9-23.35 56.65-42.8 88.89-42.31 61.8 2.22 46.71 76.73 58.21 125.7 4.97 28.05 13.75 56.13 27.64 81.02 27.09 49.19 74.73 85.5 128.98 98.27 32.55 7.63 65.78 5.69 92.59-14.42 14.96-11.11 27.36-29.03 30.27-47.15 4.2-36.17-30.84-26.37-56.32-22.02-21.76 3.8-45.09 3.63-65.21-6.57-46.15-24.2-72.66-78.54-87.78-127.89-7.14-24.35-9.53-43-11.81-64.25-2.1-23.49-6.51-47.4-19.6-67.59-11.45-18.86-30.53-33.82-51.46-39.59-68.99-19.42-148.57 66.73-207.99 108.54-95.62 72.35-188.41 131.63-317.56 151.61-62.09 9.16-125.27 8.81-185.55-11.03-39.9-13.8-78.89-34.87-108.34-64.65-33.17-34.87-58.36-77.83-68.76-125.59-4.48-20.62-5.82-41.88-4.36-62.84 4.23-52.06 22.09-114.86-10.89-159.48-27.9-32.97-70.52-.74-94.56 23.12-26.03 25.4-46.95 56.53-66.53 86.68-11 16.54-21.47 32.58-35.98 45.38-51.82 44.18-126.38 32-187.22 9.94-63.06-23-108.47-67.1-141.9-124.48-20.68-35.67-32.56-75.77-33.65-117.63-1.13-29.71 3.97-59.03.83-88.21-6.99-62.34-50.24-82-108.35-76.86C94.78 8.13 22.74 21.95 5.68 74.46c-4.89 16.33-2.99 34.38 4.81 49.61l.08.16Z" style="stroke:#7a6fb9;stroke-width:6px;stroke-miterlimit:10;fill:none"/><path d="M274.72 322.66c3.8-1.03 7.12-1.1 10.01-.23 2.5.76 4.05 2.13 4.76 4.21.82 2.41.53 4.73-.91 6.99-1.34 2.08-3.54 3.77-6.71 4.96-3.18 1.19-5.85 1.43-7.97.77-1.48-.47-2.5-1.17-3.03-2.09-.04 1.36-.45 2.64-1.26 3.86-1.39 2.07-3.72 3.64-7.09 4.59-3.71 1.04-7.2.92-10.38-.4-3.18-1.31-5.45-3.73-6.63-7.12-.99-2.86-.49-5.44 1.44-7.69 1.92-2.26 4.6-3.61 7.92-4.2.7-.12 1.4-.25 2.09-.38.41 1.47.85 2.94 1.31 4.4-.6.13-1.21.25-1.82.37-2.26.45-4 1.38-5.2 2.86-.93 1.15-1.17 2.39-.71 3.72.6 1.72 1.81 2.98 3.6 3.72 1.78.74 4.14.75 7.03 0 2.38-.62 4.02-1.63 5-2.99.97-1.36 1.23-2.65.8-3.88-.17-.49-.34-.98-.51-1.48 1.43-.37 2.85-.76 4.26-1.15.12.36.25.72.37 1.08.38 1.08 1.41 1.92 3.07 2.46s3.71.4 6.12-.44c2.08-.73 3.56-1.8 4.5-3.17.7-1.03.85-2.1.47-3.22-.35-1.01-1.2-1.71-2.57-2.12-1.57-.48-3.83-.32-6.82.43q-.6-1.935-1.14-3.87ZM258.28 352.94c.69 1.49 1.4 2.98 2.14 4.46-1.86.56-3.73 1.09-5.63 1.61-.75-1.52-1.48-3.05-2.18-4.58 1.91-.48 3.8-.98 5.67-1.49ZM284.22 357.83c2.43.51 4.19 1.7 5.37 3.62 1.11 1.81 1.37 3.76.76 5.88 2.25.37 3.9 1.3 4.99 2.84.35.5.71.99 1.06 1.49-1.39.78-2.8 1.55-4.22 2.3-.23-1.75-1.22-3.3-2.97-4.7-.83 1.48-2.15 2.68-4 3.58-2.77 1.34-5.5 1.73-8.12 1.15-2.39-.52-4.35-1.98-5.79-4.33-.75-1.24-1.12-2.7-1.09-4.36-1.01-.38-1.85-.45-2.5-.22-.49.18-.84.45-1.02.82-.47.92-.14 2.55 1.07 4.88 1.05 2.07 2.23 4.26 3.55 6.56.49 1.37.56 2.53.18 3.49-.62 1.53-1.81 2.67-3.62 3.38-1.97.78-3.99.9-6.04.35-2.81-.76-5.89-3.61-8.87-8.59-2.49-4.18-3.06-7.31-1.94-9.31.71-1.28 1.94-2.14 3.66-2.63 1.2-.34 2.4-.31 3.6.08.95.32 2.05.88 3.3 1.7.12-.5.38-1.11.77-1.84.49-.92 1.41-1.58 2.74-2.03 1.66-.56 3.73-.15 6.24 1.15 1.02-2.03 2.78-3.48 5.18-4.43 2.72-1.08 5.27-1.35 7.71-.83Zm-22.24 11.3c-.86-.79-1.64-1.3-2.37-1.53-.97-.31-1.88-.33-2.73-.07s-1.48.75-1.87 1.49c-.58 1.1-.14 2.99 1.45 5.65 2.14 3.57 4.2 5.59 5.95 6.08 1.01.27 1.85.29 2.51.04s1.12-.66 1.36-1.23c.32-.76.07-1.77-.74-3.04-1.79-3.12-2.94-5.59-3.57-7.38Zm21.3-7.38c-1.57-.33-3.15-.17-4.73.49-1.59.66-2.66 1.53-3.19 2.65-.53 1.11-.51 2.16.09 3.13.67 1.09 1.6 1.77 2.77 2.03 1.41.31 2.98.07 4.69-.71 1.55-.72 2.59-1.75 3.16-3.06.4-.94.28-1.93-.36-2.96-.5-.81-1.3-1.32-2.42-1.56ZM308.01 385.98c-1.53 1.02-3.08 2.03-4.65 3.02-.24-.52-.7-1.15-1.36-1.9-1.41-1.62-3.63-2.56-6.72-2.91-2.63-.3-5.02-.22-7.21.27-4.34 2.26-8.81 4.4-13.39 6.44-.94-1.23-1.87-2.47-2.78-3.71 9.09-3.84 17.73-8.13 25.89-12.81.82 1.09 1.66 2.18 2.52 3.26-2.02 1.21-4.06 2.39-6.14 3.54 1.62-.1 3.14-.09 4.54.06 3.74.38 6.76 1.93 9.3 4.74ZM310.18 389.06c.97 1.03 1.96 2.06 2.97 3.07a239 239 0 0 1-24.33 15.24c-1.1-1.16-2.19-2.32-3.26-3.5 8.69-4.56 16.9-9.51 24.62-14.82Zm11.58-8.51c.92.97 1.85 1.93 2.8 2.88-1.64 1.34-3.32 2.66-5.02 3.97-.97-.98-1.93-1.97-2.88-2.96 1.72-1.28 3.42-2.57 5.09-3.88ZM341.99 398.36c1.12.86 2.25 1.71 3.4 2.54-9.67 9.97-20.6 19.35-32.73 27.97-1.32-1.03-2.63-2.06-3.92-3.11 1.01-.69 2-1.38 2.99-2.08-3.67.46-6.77-.37-9.12-2.42-2.61-2.28-3.7-4.66-3.33-7.08.55-3.63 2.94-6.69 6.92-9.33 4.27-2.84 8.26-4.26 12.13-4.3 3.14-.03 5.67.78 7.69 2.48 2.47 2.08 3.38 4.57 2.65 7.53q6.99-5.925 13.29-12.21Zm-23.59 6.55c-2.47.03-5.26 1.17-8.48 3.41-3.08 2.13-4.84 4.27-5.12 6.49-.18 1.41.34 2.66 1.56 3.72 1.47 1.27 3.29 1.93 5.41 1.96 2.92.04 5.84-1.04 8.66-3.23 2.83-2.19 4.23-4.53 4.38-6.94.09-1.61-.5-2.94-1.75-4-1.15-.96-2.69-1.42-4.66-1.4ZM340.01 417.61c2.99-.33 5.85.4 8.74 2.2 3.16 1.96 4.91 4 5.19 6.21.24 2-.3 3.74-1.69 5.2-1.42-.8-2.82-1.61-4.21-2.43.69-.91 1-1.68.94-2.28-.12-1.21-1.27-2.46-3.4-3.8-1.33-.84-2.74-1.16-4.25-.99-1.27.15-2.26.56-3.01 1.24-.5.46-.73.99-.71 1.59.03.81 1.13 2.43 3.41 4.83 1.42 1.47 2.6 2.75 3.51 3.87.77 1.03 1.2 1.94 1.29 2.75.18 1.61-.39 3.08-1.76 4.37-1.49 1.41-3.63 2.27-6.41 2.54-3.33.32-6.89-.69-10.49-3.05-3.6-2.37-5.34-4.83-5.34-7.26 0-2.03 1.05-3.84 3.05-5.45 1.33.96 2.67 1.9 4.03 2.84-1.05 1.08-1.58 2.02-1.56 2.83.03 1.42 1.03 2.8 3.01 4.09 2.41 1.57 4.48 2.27 6.12 2.12 1.09-.1 2.03-.5 2.79-1.19.51-.46.71-1.2.63-2.21-.07-.81-.62-1.72-1.62-2.74-2.02-2.04-3.41-3.65-4.24-4.8-1.11-1.33-1.65-2.51-1.67-3.52-.04-1.82.6-3.28 1.86-4.4 1.63-1.45 3.56-2.29 5.8-2.54ZM376.84 422.1c2.84-.8 5.27-.76 7.41.15 2.43 1.03 3.95 2.49 4.54 4.43.64 2.13.28 4.29-1.2 6.46-1.66 2.44-4.03 4.11-7.08 4.96-2.28.63-5.16.92-8.6.8.32 6.51 1.35 10.99 3.06 13.42 2.18-1.05 4.38-2.98 6.52-5.78 1.69.65 3.4 1.29 5.12 1.9-2.46 3.06-5.66 5.68-9.62 7.81 1.14 1.83 2.41 3.26 3.81 4.28-1.77 1.09-3.57 2.16-5.39 3.21-.98-.72-2.42-2.66-4.18-5.84-5.22 1.04-10.6.32-15.8-2.16-4.39-2.1-6.75-4.64-7.17-7.46-.43-2.83.51-5.31 2.67-7.48 2.52-2.54 5.85-4.16 10-4.97q2.715-.525 6.3-.69c.17-3.68 1.13-6.53 2.76-8.59 1.74-2.19 4.02-3.66 6.85-4.45Zm-20.94 21.32c-1.3 1.35-1.83 2.83-1.54 4.43.32 1.81 1.75 3.34 4.32 4.56 3.69 1.74 7.36 2.28 10.85 1.63-1.63-4.57-2.44-9.66-2.55-15.25-1.09.03-2.28.18-3.59.44-2.89.59-5.37 1.97-7.49 4.18Zm22.34-17.78c-1.44.41-2.8 1.46-4.1 3.16-1.2 1.57-1.91 3.72-2.08 6.48 2.42.03 4.39-.17 5.89-.57 2.26-.61 3.91-1.67 4.95-3.14.86-1.21 1.11-2.4.78-3.57-.28-.98-.99-1.71-2.15-2.21-1.01-.44-2.11-.48-3.31-.14ZM387.29 467.93c-1.79-.58-3.57-1.18-5.33-1.79 6.16-7.5 11.75-15.19 16.77-23.01 1.63.51 3.27 1.01 4.92 1.49-.74 1.2-1.49 2.4-2.26 3.6 3.88-2.03 7.16-2.7 10.03-1.97 3.2.81 5.28 2.11 6.21 3.96.46.93.71 1.88.75 2.87 4.01-2.57 7.9-3.49 11.98-2.79 2.83.49 4.75 1.5 5.73 3.1 1.08 1.78 1.22 3.57.32 5.38-3.1 6.27-6.53 12.5-10.28 18.67-1.96-.33-3.9-.68-5.83-1.05 3.67-5.8 7.05-11.67 10.14-17.57.47-.9.49-1.7.07-2.42-.63-1.08-1.66-1.74-3.09-2-2.51-.45-4.89-.19-7.23.79-2.08.87-3.43 1.8-4.03 2.82-3.05 5.16-6.34 10.28-9.86 15.33-1.88-.46-3.74-.94-5.59-1.43a245 245 0 0 0 11.05-16.66c.52-.86.51-1.86-.01-2.98-.44-.93-1.52-1.61-3.23-2.06-1.88-.49-3.84-.37-5.92.37-2.34.83-3.9 1.78-4.66 2.9-3.32 4.88-6.86 9.71-10.63 14.46ZM450.08 456.5c3.79-2.06 7.67-2.98 11.81-2.79s7.25 1.45 9.32 3.87c2.34 2.75 2.84 6.19 1.24 10.36s-4.78 7.6-9.5 10.16c-4.16 2.25-8.6 3.2-13.09 2.82-4.5-.38-7.61-1.96-9.35-4.6-1.98-3-1.84-6.48.15-10.44 1.99-3.97 5.11-7.05 9.42-9.39Zm3.72 2.96c-3.07 1.69-5.32 4.05-6.79 7.13s-1.62 5.58-.29 7.49c1.08 1.56 2.84 2.46 5.26 2.65s4.9-.37 7.37-1.7c3.02-1.61 5.2-4.04 6.5-7.21 1.29-3.18 1.07-5.75-.54-7.72-1.07-1.32-2.75-2.02-5.04-2.14s-4.43.38-6.48 1.51ZM510.94 437.72c1.92-.28 3.85-.58 5.78-.9-1.89 14.18-5.14 28.57-9.79 42.97-2.18.23-4.36.44-6.53.62.4-1.17.79-2.34 1.18-3.51-3.25 2.89-7 4.46-11.08 4.66-4.52.23-7.66-.67-9.41-2.57-2.64-2.86-2.99-6.57-1.35-11.09 1.75-4.86 4.53-8.61 8.45-11.37 3.18-2.24 6.49-3.51 10.06-3.83 4.35-.39 7.43.62 9.21 3.16 1.41-6.08 2.57-12.13 3.49-18.15Zm-18.9 21.74c-2.48 1.77-4.31 4.5-5.58 8.25-1.22 3.59-1.09 6.25.58 7.96 1.05 1.09 2.64 1.58 4.77 1.46 2.55-.14 4.92-.96 7.06-2.43 2.94-2.02 4.93-4.82 5.9-8.32.98-3.51.42-6.12-1.51-7.85-1.29-1.16-3.04-1.63-5.25-1.44-2.01.17-3.99.96-5.97 2.37ZM522.78 450.19c2.03-.36 4.07-.74 6.12-1.15-.98 6.36-2.22 12.75-3.73 19.17-.48 2.05-.22 3.49.83 4.3q1.32 1.02 4.29.48c2.86-.53 5.61-1.9 8.17-4.11 3.84-3.31 5.94-6.42 6.39-9.2.8-4.96 1.45-9.89 1.94-14.79 2.07-.55 4.14-1.12 6.21-1.72-.8 9.68-2.18 19.49-4.17 29.36-2.25.55-4.49 1.06-6.73 1.56.39-1.75.75-3.5 1.1-5.25-4.3 4.65-9.16 7.46-14.28 8.36-4.67.82-7.77.54-9.32-.71s-1.97-3.07-1.35-5.45c1.83-6.97 3.33-13.93 4.52-20.84ZM563.32 424.8c1.99-.7 3.98-1.43 5.98-2.18.39 14.7-.56 29.79-2.89 45.11-2.26.68-4.52 1.34-6.78 1.97 2.6-15.22 3.82-30.25 3.69-44.9ZM583.63 435.67c2.97-3.67 6.68-6.5 11.28-8.6 4.38-2.01 8.21-2.52 11.53-1.4 3.09 1.04 4.83 4.14 4.96 9.43-8.83 4.37-17.67 8.26-26.5 11.7-.19 3.76.7 6.15 2.81 7.1 1.89.85 4.41.67 7.56-.63 3.14-1.3 5.42-2.82 6.8-4.51 1.61-1.97 2.42-3.8 2.44-5.44 2.43-1.11 4.86-2.26 7.29-3.44-.86 3.73-2.37 6.91-4.45 9.5-3.01 3.73-7.2 6.72-12.43 8.83-5.47 2.2-9.77 2.45-12.87.96-3.32-1.59-4.68-4.85-4.35-9.67s2.3-9.37 5.92-13.83Zm4.76.98c-1.5 1.87-2.49 3.77-2.98 5.73 6.14-2.45 12.29-5.12 18.43-8.02-.04-1.81-.95-3.01-2.69-3.65-1.53-.55-3.67-.19-6.41 1.04-2.54 1.14-4.64 2.76-6.35 4.89ZM622.49 416.25c2.3-3.61 5.67-6.76 10.22-9.63 4.96-3.13 8.72-4.57 11.34-4.12 2.37.41 3.75 1.7 4.09 3.91q-3.165 2.145-6.33 4.2c-.39-1.14-.93-1.79-1.64-1.92-1.41-.28-3.79.67-7.14 2.75-2.1 1.3-3.71 2.85-4.86 4.69-.96 1.54-1.39 2.84-1.29 3.93.07.73.44 1.19 1.13 1.36.92.24 3.67-.47 8.28-2.3 2.85-1.15 5.27-2.08 7.27-2.77 1.78-.54 3.15-.73 4.1-.56 1.9.36 2.98 1.56 3.2 3.62.23 2.25-.67 5.05-2.76 8.33-2.5 3.94-6.63 7.61-12.28 10.79-5.66 3.18-9.87 4.23-12.58 3.39-2.27-.7-3.39-2.46-3.46-5.22 2.21-1.14 4.42-2.32 6.62-3.52.29 1.55.88 2.46 1.8 2.71 1.6.45 3.97-.18 7.1-1.96 3.79-2.17 6.33-4.28 7.57-6.21.83-1.29 1.2-2.5 1.1-3.62-.07-.75-.69-1.24-1.86-1.5-.94-.2-2.41.12-4.4.92-3.98 1.62-6.97 2.66-8.96 3.22-2.43.81-4.21 1.03-5.35.7-2.05-.58-3.12-1.79-3.25-3.61-.17-2.36.61-4.87 2.33-7.58Z" class="line3-cls-3"/></g></g></svg>