<svg xmlns="http://www.w3.org/2000/svg" id="Ebene_2" data-name="Ebene 2" viewBox="0 0 1878.22 552.83"><defs><style>.line5-cls-1{fill:#fff;stroke:#f0f;stroke-miterlimit:10}.line5-cls-2,.line5-cls-3{stroke-miterlimit:10;fill:none;stroke:#7a6fb9;stroke-width:6px}.line5-cls-3{fill:#9e005d}</style></defs><g id="Ebene_1-2" data-name="Ebene 1"><g id="line5"><path d="M1476.67 433.14c44.21-38.61 84.22-37.65 117.12-73.53 9.22-10.05 24.58-30.31 37.61-47.49 11.25-14.83 17.7-23.95 30.64-29.11 3.59-1.43 21.59-8.1 36.77 0 11.9 6.35 13.15 17.04 26.04 50.55 12.49 32.47 18.73 48.7 29.11 61.28 7.73 9.37 18.94 17.99 41.36 35.23 20 15.38 30.18 21.15 35.23 35.23 1.13 3.16 6.49 18.09 0 29.11-12.16 20.65-62.86 22.33-91.91 0-28.51-21.92-37.38-67.87-39.83-80.57-4.13-21.4-3.29-38.71-15.32-45.04-11.88-6.26-28.09 2.5-29.11 3.06-4.35 2.42-8.32 5.8-19.91 22.94-12.11 17.9-11.92 20.32-18.38 29.14-11.78 16.07-25.06 25.28-32.17 30.12-7.39 5.03-21.72 14.6-42.89 19.69-11.23 2.7-29.85 6.93-50.55 0-6.42-2.15-24.39-8.17-26.04-19.69-1.24-8.7 7.36-16.65 12.26-20.92ZM74.5 38.57c19.49 5.59 38.25 21 52.9 36.17 17.12 17.66 33.89 37.69 51.27 55.49 15.28 15.71 31.22 30.48 48.89 43.08 30.02 21.63 66.75 35.29 103.53 45.11 38.88 10.5 80.86 15.02 120.44 8.1 25.1-4.16 49.1-13.07 72.47-22.97 32.95-13.32 76.16-35.4 109.46-17.97 24.09 14.06 32.45 45.59 40.18 72.78 4.61 17.16 9.27 34.53 16.29 50.94 20.24 46.9 56.38 87.16 97.55 115.51 16.92 11.43 35.25 20.16 52.85 30.46 19.13 11.28 40.53 27.34 44.36 49.12 4.36 30.3-25.44 46.82-52.75 45.36-64.99-3.23-129.66-63.84-163.47-116.66-19.54-30.29-32.1-63.47-55.15-91.17-41.23-50.96-91.61-43.95-149.77-34.91-79.2 12.18-162.81 7.55-235.39-28.84-48.87-24.44-90.21-59.09-128.69-96.61-15.36-15.32-29.9-30.83-42.77-48.03-12.12-16.08-24.56-37.38-26.57-56.26-2.95-28.46 15.93-47.47 44.25-38.72l.15.04Z" class="line5-cls-3"/><path d="M185.92 147.6c2.24 4.18 4.76 8.33 7.56 12.42-1.43.99-2.87 1.96-4.32 2.93-2.26-3.26-4.35-6.56-6.26-9.88-.24.14-.48.28-.73.42-3.13 1.67-6.27 3.2-9.41 4.59-.57.16-1.1.37-1.61.64 2.83.31 4.68 1.2 5.66 2.74 1.3 2.05 1.38 4.35.21 6.94-1.26 2.78-4.01 5.5-8.49 8.01-5.64 3.15-10.86 4.45-15.5 3.88-3.61-.45-6.32-1.97-7.95-4.48-1.56-2.39-1.59-4.87-.12-7.37 1.46-2.51 4.52-4.87 9-7.21.74 1.31 1.5 2.61 2.28 3.91-3.23 1.75-5.32 3.37-6.18 4.93-.65 1.17-.63 2.28.05 3.33.91 1.4 2.27 2.22 4.05 2.45 2.79.35 6.44-.61 10.85-2.93 4.23-2.23 6.69-4.3 7.55-6.07.57-1.18.59-2.19.05-3.03-.8-1.26-2.23-1.96-4.34-2.14-1.41-.12-2.44-.17-3.09-.13-.65-1.08-1.28-2.17-1.89-3.26.76-.22 1.4-.46 1.92-.71 6.82-2.93 13.41-6.07 19.75-9.41.32-.19.64-.37.97-.56ZM161.48 186.84c1.01 1.29 2.05 2.58 3.11 3.85-1.83 1.04-3.68 2.07-5.54 3.08-1.09-1.31-2.15-2.63-3.2-3.95 1.89-.98 3.77-1.97 5.63-2.98ZM199.32 176.45c.82.94 1.65 1.87 2.49 2.8-2.7 2.23-5.47 4.43-8.3 6.59 1.52 1.65 3.09 3.28 4.7 4.9-1.12.92-2.26 1.83-3.4 2.73a187 187 0 0 1-4.81-4.99c-4.79 3.55-9.76 7-14.88 10.35-.95.62-1.57 1.45-1.85 2.5-.23.84.12 1.75 1.07 2.71 1.47 1.5 3.36 2.46 5.62 2.87-1.46 1.02-2.93 2.03-4.42 3.03-2.15-.55-3.95-1.54-5.34-2.96-2.15-2.19-2.91-4.25-2.35-6.13.61-2.09 1.92-3.72 3.85-4.92 5.38-3.36 10.58-6.83 15.61-10.41-1.06-1.2-2.11-2.41-3.12-3.62 1.23-.83 2.44-1.67 3.65-2.52.99 1.19 2.01 2.38 3.05 3.55 2.88-2.12 5.69-4.27 8.45-6.46ZM201.43 198.67c3.6-.36 6.46.41 8.8 2.39 2.33 1.97 3.41 4.53 3.21 7.74-.23 3.63-1.92 7.11-5.35 10.33s-7.44 5.05-11.98 5.4c-4 .31-7.45-.69-10.12-2.94-2.68-2.26-3.73-5.02-3.16-8.22.63-3.63 2.99-6.84 6.8-9.75s7.73-4.54 11.81-4.94Zm.41 4.35c-2.92.3-5.8 1.58-8.67 3.87-2.88 2.29-4.56 4.58-4.91 6.93-.29 1.92.28 3.5 1.71 4.7s3.36 1.73 5.73 1.55c2.89-.22 5.71-1.56 8.41-3.99s4.08-4.96 4.31-7.52c.14-1.71-.43-3.1-1.73-4.2s-2.9-1.54-4.85-1.34ZM223.35 216.04c3.62-.7 6.7-.21 9.46 1.53 2.75 1.74 4.32 4.18 4.68 7.39.4 3.64-.73 7.26-3.68 10.8s-6.73 5.76-11.3 6.56c-4.03.71-7.71.04-10.83-1.94-3.12-1.99-4.67-4.64-4.67-7.89 0-3.69 1.81-7.12 5.17-10.39s7.06-5.27 11.17-6.07Zm1.19 4.3c-2.93.58-5.65 2.13-8.17 4.7-2.52 2.56-3.83 5.01-3.77 7.39.04 1.95.9 3.46 2.57 4.52s3.73 1.39 6.12.98c2.91-.5 5.56-2.11 7.9-4.8 2.33-2.69 3.31-5.34 3.09-7.91-.15-1.72-1-3.05-2.53-4.02s-3.25-1.25-5.21-.87ZM257.02 214.57c1.28.67 2.58 1.33 3.89 1.97-7.4 12.48-16.09 24.65-26.04 36.37-1.56-.78-3.11-1.58-4.65-2.39 10.2-11.57 19.14-23.6 26.8-35.95ZM260.19 235.64c2.88-.97 5.87-.78 9.17.55 3.59 1.44 5.83 3.26 6.65 5.54.74 2.07.65 4.02-.36 5.83-1.61-.57-3.2-1.15-4.78-1.75.45-1.1.57-1.97.36-2.6-.42-1.25-1.87-2.35-4.3-3.33-1.52-.62-2.99-.68-4.45-.18-1.22.41-2.11 1.05-2.67 1.93-.38.58-.49 1.19-.31 1.82.23.84 1.72 2.33 4.57 4.39 1.77 1.26 3.27 2.38 4.45 3.38 1.02.93 1.69 1.81 1.99 2.65.59 1.67.41 3.33-.61 4.97-1.11 1.79-3 3.12-5.68 3.97-3.22 1.01-7.03.68-11.21-1.05-4.19-1.73-6.55-3.94-7.17-6.5-.52-2.14.07-4.26 1.66-6.39 1.55.72 3.12 1.42 4.7 2.12-.77 1.36-1.06 2.47-.83 3.32.39 1.49 1.73 2.73 4.04 3.68 2.8 1.15 5.04 1.46 6.63.97 1.06-.33 1.88-.94 2.45-1.82.38-.59.39-1.41.05-2.46-.28-.84-1.05-1.69-2.31-2.56-2.52-1.74-4.3-3.15-5.42-4.19-1.43-1.17-2.26-2.29-2.53-3.36-.48-1.91-.2-3.58.77-5.02 1.27-1.87 2.98-3.16 5.14-3.89ZM297.65 233.37c2.6-1.34 5.01-1.71 7.36-1.1 2.66.69 4.55 1.99 5.64 3.95 1.2 2.16 1.41 4.51.53 7.05-1 2.86-2.9 5.03-5.69 6.44-2.1 1.06-4.88 1.86-8.33 2.34 2.07 6.84 4.37 11.4 6.77 13.68 1.88-1.49 3.52-3.91 4.88-7.24 1.87.4 3.76.79 5.65 1.16-1.59 3.64-4.03 6.96-7.38 9.89 1.67 1.74 3.37 3.03 5.07 3.88-1.46 1.45-2.94 2.89-4.45 4.32-1.2-.59-3.22-2.39-5.91-5.44-4.91 2.03-10.5 2.25-16.38.6-4.97-1.4-8.02-3.62-9.21-6.52-1.2-2.91-.94-5.71.63-8.43 1.83-3.17 4.71-5.53 8.61-7.15q2.55-1.065 6.06-1.89c-.8-3.93-.58-7.13.51-9.61 1.16-2.63 3.04-4.6 5.64-5.94Zm-15.17 26.39c-.92 1.68-1.05 3.34-.32 4.99.81 1.85 2.66 3.21 5.56 4.01 4.16 1.16 7.98 1.06 11.27-.25-2.92-4.55-5.15-9.79-6.76-15.7-1.07.23-2.21.6-3.44 1.12-2.71 1.15-4.8 3.08-6.31 5.82Zm17.46-22.88c-1.32.68-2.39 2.03-3.24 4.06-.78 1.87-.93 4.28-.36 7.23 2.41-.39 4.31-.95 5.7-1.64 2.08-1.04 3.43-2.44 4.08-4.18.53-1.42.46-2.73-.17-3.92q-.795-1.485-2.7-1.98c-1.12-.29-2.21-.15-3.31.41ZM316.39 288.98c-2.04-.34-4.07-.7-6.08-1.08 5.74-11.87 10.49-23.86 14.23-35.91 1.78.29 3.57.57 5.36.83-.31 1.06-.62 2.11-.94 3.17 2.92-2.12 6.03-2.96 9.51-2.56 3.84.44 6.74 1.8 8.7 4.15 2.4 2.9 3.13 6.73 1.86 11.55-1.31 4.98-4.09 8.68-8.22 11-3.36 1.89-7.24 2.57-11.49 2.01s-6.81-2.35-7.72-5.24a275 275 0 0 1-5.2 12.08Zm14.43-29.67c-2.35 1.37-3.92 3.18-4.7 5.45-.39 1.13-.79 2.27-1.2 3.4-.82 2.27-.54 4.46.94 6.56 1.21 1.72 2.91 2.73 5.1 3.01 1.99.26 3.9-.11 5.69-1.11 2.81-1.56 4.8-4.26 5.89-8.05 1.04-3.63.75-6.36-.7-8.19q-1.755-2.205-4.53-2.52c-2.23-.26-4.37.22-6.48 1.46ZM381.63 255.26c-.18 1.86-.39 3.72-.62 5.58-.79-.15-1.88-.21-3.28-.19-3 .04-5.93 1.14-8.9 3.29-2.52 1.82-4.41 3.7-5.65 5.69-1.03 4.78-2.2 9.57-3.52 14.36-2.12-.09-4.22-.2-6.32-.32 2.78-9.35 4.99-18.72 6.63-28.05 1.91.08 3.83.14 5.76.19-.37 2.34-.77 4.69-1.2 7.04 1.24-1.31 2.52-2.46 3.86-3.45 3.57-2.64 7.89-3.97 13.23-4.12ZM386.94 255.58c2-.09 4-.2 6.01-.32-.6 9.5-1.77 19.08-3.5 28.7-2.2.09-4.39.17-6.57.22 1.92-9.58 3.27-19.12 4.06-28.6Zm.78-14.67c1.9-.1 3.81-.22 5.72-.35 0 2.19-.04 4.38-.11 6.57-1.96.13-3.91.25-5.85.34.11-2.19.19-4.38.24-6.56ZM406.79 282.8c-2.24.2-4.48.39-6.7.55 1.43-9.68 2.29-19.31 2.59-28.85 2.04-.19 4.08-.4 6.14-.63-.02 1.71-.06 3.42-.11 5.13 3.88-4.17 7.72-6.56 11.88-7.17 4.15-.62 7.55-.16 10.19 1.45 1.76 1.08 2.7 2.55 2.77 4.45.25 7.17.19 14.41-.17 21.69-2.3.38-4.59.73-6.87 1.06.47-6.74.68-13.44.62-20.09-.02-1.56-.69-2.74-1.98-3.57s-3.1-1.07-5.41-.74c-2.1.3-4.19 1.44-6.33 3.41-3.21 2.96-4.96 5.86-5.16 8.79-.34 4.82-.82 9.67-1.43 14.53ZM444.3 237.7q3.09-.72 6.21-1.5c.55 3.31 1.03 6.65 1.44 10 3.64-.89 7.3-1.84 10.97-2.85.22 1.38.42 2.75.61 4.14q-5.58 1.53-11.1 2.85.9 8.415 1.23 16.98c.04 1.05.64 1.89 1.82 2.51.94.5 2.46.5 4.54 0 3.24-.78 6.12-2.14 8.58-4.05.12 1.68.23 3.35.32 5.04a24.8 24.8 0 0 1-8.39 3.7c-4.7 1.11-8.09 1.03-10.18-.12-2.33-1.27-3.47-2.98-3.51-5.09-.1-5.87-.41-11.71-.91-17.49q-3.885.855-7.74 1.62c-.09-1.38-.19-2.76-.3-4.13 2.54-.51 5.09-1.05 7.64-1.62-.35-3.35-.76-6.68-1.24-10ZM475.1 242.47c2.25-2.89 5.72-5.1 10.52-6.78 5.24-1.83 9.31-2.35 12.23-1.4 2.64.87 4.26 2.32 4.75 4.4-2.26.88-4.51 1.73-6.76 2.55q-.735-1.695-1.92-2.1c-1.57-.55-4.13-.17-7.67 1.05-2.21.76-3.87 1.86-5.01 3.34-.95 1.23-1.34 2.36-1.16 3.4.12.7.55 1.2 1.32 1.5 1.01.41 3.95.31 8.89-.46 3.05-.49 5.66-.87 7.82-1.09 1.93-.14 3.44-.04 4.5.31 2.13.71 3.4 2.02 3.77 3.96.4 2.11-.43 4.52-2.53 7.15-2.52 3.16-6.83 5.8-12.79 7.72-5.97 1.91-10.46 2.12-13.45.8-2.5-1.09-3.84-2.99-4.1-5.63 2.3-.65 4.61-1.33 6.92-2.03.42 1.51 1.13 2.49 2.14 2.91 1.77.74 4.3.6 7.61-.47 4-1.3 6.65-2.78 7.9-4.33.83-1.03 1.16-2.09.98-3.15-.12-.7-.84-1.29-2.15-1.76-1.05-.37-2.64-.37-4.78-.01-4.26.72-7.44 1.09-9.58 1.21-2.59.27-4.5.12-5.75-.41-2.26-.96-3.48-2.32-3.74-4.06-.34-2.25.34-4.45 2.03-6.61Z" class="line5-cls-1"/><path d="M35.64 9.15c17.79-9.31 39.88-8.03 56.14 3.7 19.89 13.98 31.91 36.18 46.47 55.67 26.25 35.13 57.2 71.39 87.44 102.48 26.31 26.87 55.92 48.53 93.5 52.56 15.81 1.95 32.22 1.3 48.28-.19 38.5-4.08 80.84-11.08 118-24.39 31.53-10.91 59.31-30.55 92.16-38.11 23.91-5.06 48.42-2.59 68.26 10.31 30.6 19.59 36.21 56.27 40.58 91.29 3.29 25.35 5.75 51.01 13.08 74 6.25 20.01 16.99 37.98 32.11 52.71 18.27 18.02 42.64 31.87 66.46 41.14 25.86 10.71 56.96 14.89 76.11 35.23 20.33 22.26 10.57 52.36-16.48 63.21-28.6 11.33-61.41 1.86-85.71-14.95-23.12-15.78-45.04-39.49-64.53-61.03-17.64-19.84-36.6-41.79-48.88-62.65-8.37-13.92-14.63-28.94-20.52-44.01-6.77-16.98-13.27-36.15-23.9-47.11-21.23-22.16-59.34-19.75-88.63-16.71-23.47 2.84-47.57 9.7-68.95 17.13-28.08 9.92-55.1 20.52-84.76 23.75-69.51 8.3-137.4-20.39-196.34-54.98-50.6-30.08-92.66-72.32-127.71-117.48C29.28 125.78 10.15 98 3.94 67.5-.99 43.68 13.98 19.71 35.49 9.23zM1517.93 402.44c5.48-17.12 20.55-27.88 35.45-37.39 13.65-8.76 27.12-17.65 39.58-28.87 11.03-9.72 21.15-21.34 30.48-32.14 14.43-16.72 30.14-33.39 51.27-40.83 8.17-2.85 17.19-3.92 24.81-.49 15.47 7.29 21.23 29.19 26.73 45.34 11.58 38.03 28.5 75.58 58.25 102.83 12.29 11.57 26.51 21.09 40.81 30.08 19.9 13.04 41.03 24.76 48.49 47.33 2.74 9.04 1.6 18.97-3.67 26.65-18.84 26.11-64.07 10.28-87.51-2.5-17.35-9.58-31.55-23.43-42.74-39.98-4.89-7.1-9.35-14.73-13.42-22.4-14.5-26.16-21.56-52.32-47.42-63.55-32.52-12.99-54.5 16.9-75.45 37.33-14.3 14.11-33.68 28.24-54.21 26.8-24.3-1.37-39.36-25.19-31.49-48.04l.05-.16Z" class="line5-cls-2"/></g></g></svg>