<svg xmlns="http://www.w3.org/2000/svg" id="Ebene_2" data-name="Ebene 2" viewBox="0 0 1979.81 782.64"><defs><style>.line4-cls-3{stroke-miterlimit:10;fill:#fff;stroke:#f0f}</style></defs><g id="Ebene_1-2" data-name="Ebene 1"><g id="line4"><path d="M14.56 46.59c17.26-66.1 72.81-50.06 95.66 1.76 10.3 22.57 15.44 47.58 21.87 71.56 5.1 19.38 10.49 37.22 18.05 56.47 16.16 42.22 43.06 81.58 76.23 113.17 48.26 46.49 110.69 76.67 176.35 86.29 42.66 6.13 90.28-2.66 130.71-21.58 17.27-7.74 35.3-17.24 52.21-24.68 30.61-13.79 62.58-22.43 84.6 5.08 16.2 19.51 24.22 53.77 30.9 80.46 7.07 29 16.1 58.06 31.11 84.17 41.69 75.35 122.29 118.51 205.05 129.65 46.74 7.21 99.21 4.49 149.54-1.44 71.63-8.6 148.35-21.5 216.28-38.92 38.97-10.08 81.6-22.32 117.09-39.15 29.45-13.83 55.56-34.49 78.98-56.74 27.56-25.53 50.9-55.97 82.06-77.1 29.36-20 70.03-25.99 99.84-3.3 46.39 34.14 53.91 98.75 78.02 146.73 26.94 56.53 81.13 91.19 139.32 109.13 22.33 7.5 44.93 12.96 62.83 28.21 26.76 23.09 16.41 54.67-11.46 70.65-13.92 8.25-30.46 12.08-46.7 12.57-27.75.83-55.43-5.58-82.03-15.43-45.29-16.65-85.68-48.57-108.47-91.28-17.45-30.87-23.9-68.32-41.91-98.58-25.83-42.57-62.7-27.38-92.99 1.47-6.67 6.14-13.15 12.84-19.44 19.5-59.27 65.92-96 91.17-179.93 116.18-56.26 17.17-114.97 27.97-172.9 35.91-79.86 11.23-157.81 18.01-237.16 10.56-94.51-9.04-201.87-28.05-273-100.03-28.85-29.15-50.59-65.31-60.49-104.99-5.52-21.1-8.52-45.25-13.1-64.89-5.33-21.69-12.66-39.48-32.96-46.98-33.36-11.71-89.04 20.55-123.91 30.86-65.8 23.53-127.1 18.35-191.46-7.31-52.07-21-100.01-51.1-140.23-92.08C80.34 317.35 47.11 248.97 25.74 176.3 14.77 135.4 4.77 89.41 14.51 46.78z" style="fill:#ed1e79;stroke:#000;stroke-width:6px;stroke-miterlimit:10"/><path d="M3.05 98.68c11.24-27.13 34.41-44.93 57.93-44.25 25.67.74 43.74 22.38 47.55 30.31 8.71 18.11 12.7 38.88 19.08 58.2 10.88 35.35 25.63 67.2 46.42 96.55 15.25 21.76 33.97 41.5 53.97 59.37 26.02 22.96 51.04 41.59 80.08 55.68 20.21 9.67 41.75 16.99 63.82 21.86 95.52 19.68 164.53-5.91 234.98-70.62 5.07-4.65 9.9-9.29 14.63-14.05 4.59-4.62 4.74-5.01 6.55-6.74 11.04-10.52 24.01-14.18 26.05-14.73 8.38-2.26 18.21-4.92 27.57 0 8.29 4.35 11.85 12.34 13.79 16.85 7.36 17.14 3.4 34.26 2.7 37.44-6.85 31.33-6.06 119.87 10.84 163.82C739.46 567.55 823 598.36 900.49 609.72c55.45 9.53 107.8 9.44 166.29 3.72 38.78-3.49 79.4-7.79 117.64-12.63 96.84-11.52 181.5-34.98 260.81-87.6 32.02-21.07 56.99-46.64 82.08-75.18 12.56-13.89 25.43-28.3 39.18-41.46 14.18-13.34 27.29-24.42 44.55-31.12 26.22-10.08 58.28-5.26 75.77 18.7 4.47 5.94 8.07 12.56 11.19 19.35 16.35 37.47 27.91 83.58 42.3 121.87 7.01 19.04 13.52 35.92 25.12 52.05 25.35 34.14 63.78 61.34 104.8 74.1 14.01 4.27 27.96 5.71 42.34 5.03 13.18-.42 27.35-1.64 39.73 2.29 25.93 7.86 29.74 36.04 14.56 57.15-13.22 19.37-37.54 31.02-59.36 35.51-34.76 7.32-66.86-.36-98.82-16.46-31.64-16-60.12-42.86-77.07-74.55-17.72-30.08-22.78-73.07-31.78-100.27-2.69-7.75-6.48-15.45-11.57-21.59-12.04-14.89-31.84-20.8-50.53-20.33-38.62.38-66.09 27.99-93.14 53.43-17.21 16.57-34.86 34.33-52.06 50.92-16.54 15.83-31.76 30.79-49.64 44.43-7.31 5.58-19.09 14.85-33.73 23.99-22.94 14.32-46.19 24.41-76.39 34.14-58.22 18.76-110.86 26.03-132.95 28.75-21.23 2.62-71.6 6.25-171.54 5.94-95.97-.3-140.37 2.41-211.58-37.11-36.4-20.2-94.78-49.6-126.27-109.43-8.75-16.63-13.24-31.31-20.98-56.67-13.28-43.48-11.91-59.47-26.82-91.63-12.35-26.62-19.68-42.43-35.48-48.65-25.04-9.85-50.39 12.64-90.41 35.34-18.17 10.31-85.73 48.63-149.11 52.88-69.59 4.67-125.22-32.34-170.03-62.15-17.51-11.65-67.27-46.69-112-109.99C21.46 241.79 6.86 148.47 3.05 98.68Z" style="stroke:#000;stroke-width:6px;stroke-miterlimit:10;fill:none"/><path d="M748.96 576.32c1.21.62 2.42 1.24 3.64 1.86a1494 1494 0 0 1-24.14 34.8c1.22.61 2.45 1.21 3.68 1.81-1.4 2-2.81 4-4.23 5.99-1.25-.61-2.5-1.22-3.74-1.84-3.32 4.6-6.68 9.19-10.07 13.77-1.41-.7-2.82-1.4-4.22-2.1 3.44-4.56 6.84-9.13 10.21-13.71-3.95-1.99-7.86-4.01-11.75-6.07 1.6-2.05 3.19-4.11 4.78-6.17a675 675 0 0 0 35.84-28.34Zm-8.12 11.7a677 677 0 0 1-24.18 18.94c2.58 1.35 5.18 2.68 7.78 4 5.55-7.62 11.02-15.27 16.4-22.95ZM727.15 629.73c1.4.67 2.8 1.33 4.21 2-1.61 2.33-3.22 4.65-4.84 6.97-1.43-.67-2.86-1.35-4.29-2.03 1.65-2.31 3.28-4.62 4.91-6.94ZM780.57 592.25c1.1.49 2.21.97 3.32 1.45-10.56 18.74-21.6 37.34-33.11 55.8-1.28-.54-2.56-1.09-3.83-1.63.96-1.51 1.91-3.01 2.86-4.52-3.56 2.85-6.59 3.74-9 2.68-2.67-1.17-3.9-3.39-3.69-6.62.31-4.85 2.52-10.24 6.47-16.21 4.23-6.4 8.37-10.88 12.4-13.47 3.27-2.1 5.92-2.7 7.99-1.77 2.53 1.13 3.38 3.84 2.59 8.15 4.76-7.92 9.42-15.87 14-23.85Zm-24.44 22.93c-2.53 1.62-5.39 4.89-8.58 9.82-3.06 4.71-4.71 8.54-4.89 11.5-.12 1.89.46 3.11 1.71 3.66 1.5.66 3.31.35 5.4-.94 2.87-1.77 5.7-4.93 8.5-9.47 2.79-4.54 4.23-8.43 4.4-11.65.11-2.15-.47-3.5-1.76-4.08-1.17-.52-2.76-.13-4.78 1.17ZM778.06 615.28c1.18.49 2.35.98 3.54 1.47-6.85 12.31-13.91 24.56-21.17 36.75-1.29-.52-2.58-1.05-3.87-1.58a1452 1452 0 0 0 21.51-36.63Zm10.66-19.1 3.36 1.41c-1.54 2.87-3.09 5.74-4.66 8.6-1.15-.48-2.3-.95-3.44-1.43 1.59-2.86 3.17-5.71 4.74-8.58ZM788.01 622.97c2.62-1.91 4.93-2.48 6.96-1.69 1.91.74 3.02 2.5 3.36 5.27 2.34-1.77 4.34-2.35 6.03-1.72.54.2 1.09.4 1.63.6-1.03 2.13-2.07 4.25-3.12 6.38-.93-1.66-2.52-2.37-4.81-2.17-.16 2.32-.9 4.83-2.26 7.5-2.04 4.01-4.39 6.98-7.07 8.9-2.44 1.75-4.89 2.16-7.32 1.23-1.28-.49-2.32-1.55-3.1-3.2-1.12.64-1.93 1.4-2.42 2.27q-.555.99-.54 1.8c.02 1.35 1.13 2.59 3.33 3.69 1.94 1.01 4.02 2.06 6.25 3.14 1.06.93 1.63 2.06 1.71 3.41.11 2.16-.46 4.46-1.74 6.9-1.4 2.66-3.12 4.68-5.15 6.07-2.79 1.89-6.74 1.92-11.73.03-4.19-1.59-6.3-3.9-6.35-6.87-.03-1.9.6-3.93 1.88-6.12.9-1.53 1.98-2.71 3.27-3.55q1.53-1.005 3.84-1.71c-.14-.59-.22-1.42-.23-2.51-.02-1.35.48-2.9 1.48-4.65 1.25-2.19 3.38-3.9 6.36-5.14-.04-2.96.88-6.09 2.7-9.4 2.06-3.74 4.41-6.56 7.04-8.47Zm-15.35 32.95c-1.16.09-2.12.38-2.89.89a7.8 7.8 0 0 0-2.48 2.65c-.63 1.09-.93 2.18-.91 3.27.04 1.62 1.38 2.95 4.06 3.97 3.61 1.37 6.32 1.43 8.09.23 1.01-.69 1.76-1.48 2.23-2.36.48-.89.69-1.73.65-2.54-.06-1.08-.74-1.86-2.05-2.35-3.04-1.4-5.27-2.65-6.71-3.75Zm16.31-28.16c-1.67 1.22-3.11 2.93-4.31 5.14-1.19 2.21-1.78 4.12-1.75 5.73q.045 2.43 1.56 3c1.13.43 2.31.22 3.53-.66 1.46-1.05 2.82-2.79 4.09-5.24 1.15-2.22 1.69-4.27 1.64-6.16-.04-1.34-.6-2.22-1.69-2.65-.85-.33-1.87-.05-3.06.82ZM808.96 627.29c1.22.44 2.44.87 3.66 1.3-5.88 12.6-11.97 25.16-18.27 37.67-1.34-.46-2.67-.93-4-1.4 6.41-12.47 12.61-25 18.61-37.57Zm9.14-19.57c1.16.42 2.32.84 3.49 1.26a1392 1392 0 0 1-3.98 8.8c-1.19-.42-2.38-.85-3.57-1.28 1.36-2.92 2.72-5.85 4.06-8.78ZM826 617.95c1.19.41 2.39.81 3.59 1.21-1.88 4.43-3.78 8.86-5.71 13.28 2.11.7 4.22 1.39 6.34 2.07-.76 1.82-1.53 3.64-2.3 5.46-2.15-.69-4.29-1.39-6.42-2.09-3.25 7.36-6.56 14.71-9.95 22.04-.62 1.35-.87 2.7-.72 4.05.11 1.08.78 1.81 1.98 2.2 1.88.6 3.91.35 6.09-.78-.95 2.15-1.91 4.31-2.88 6.46q-3.165 1.335-5.82.48c-2.72-.87-4.2-2.53-4.45-4.96-.28-2.69.25-5.39 1.52-8.09 3.56-7.54 7.05-15.09 10.47-22.66-1.5-.51-3-1.02-4.49-1.54.84-1.8 1.67-3.61 2.49-5.41 1.47.51 2.95 1.02 4.43 1.52 1.97-4.41 3.91-8.83 5.83-13.25ZM836.3 639.91c2.4-2.09 4.9-2.73 7.55-1.94 3.15.94 4.95 2.86 5.43 5.8.43 2.67.11 5.5-1 8.49-2.69 7.25-5.46 14.49-8.28 21.71-.99 2.53-1.21 4.63-.64 6.31-1.67-.46-3.33-.93-4.99-1.4-.19-1.07.15-2.64.97-4.7-3.44 2.85-6.79 3.8-9.95 2.85-2.62-.78-4.12-2.52-4.48-5.21-.33-2.42.11-4.99 1.3-7.72 1.38-3.18 3.1-5.61 5.15-7.29 2.27-1.87 4.72-2.79 7.35-2.77 1.75.02 3.36-.15 4.8-.49 1.97-.19 3.41-.54 4.33-1.04.7-1.84.92-3.56.67-5.16s-1.08-2.61-2.48-3.03c-1.79-.53-3.33-.23-4.65.91-.88.76-1.77 1.9-2.68 3.42-1.42-.43-2.84-.87-4.25-1.31q2.565-4.605 5.85-7.44Zm5.01 19.15c-.97.23-1.84.37-2.59.4-2.62.26-4.62.44-6 .53-1.25.14-2.33.59-3.24 1.33-1.14.94-2 2.09-2.58 3.46-.67 1.6-.92 3.06-.73 4.41.12.8.85 1.41 2.21 1.82 2.31.69 4.74 0 7.24-2.1 1.59-1.33 2.58-2.32 2.99-2.97.9-2.29 1.8-4.58 2.69-6.88ZM865.74 622.52c1.22.34 2.44.67 3.67 1-6.32 19.86-13.13 39.65-20.43 59.36-1.4-.37-2.8-.74-4.19-1.11 7.47-19.67 14.46-39.42 20.96-59.24ZM904.71 631.99c1.27.27 2.53.53 3.8.79-4.48 20.17-9.44 40.29-14.9 60.36-1.45-.29-2.89-.58-4.33-.87l1.38-4.92c-2.61 3.43-5.33 4.86-8.06 4.27-3.02-.64-4.96-2.57-5.8-5.75-1.26-4.77-.83-10.42 1.15-16.95 2.12-7 4.76-12.12 7.93-15.39 2.57-2.65 5.01-3.72 7.38-3.2 2.89.63 4.63 3.1 5.23 7.43 2.17-8.58 4.24-17.17 6.23-25.77Zm-16.92 26.83c-1.99 2.05-3.76 5.75-5.33 11.13-1.5 5.15-1.9 9.17-1.11 12.08q.75 2.775 2.88 3.24c1.7.36 3.39-.27 5.05-1.91 2.28-2.25 4.07-5.85 5.37-10.78s1.48-8.98.59-12.14c-.59-2.1-1.61-3.32-3.08-3.63-1.34-.29-2.79.39-4.38 2.02ZM924.16 656.72c-.5 2.61-1.01 5.21-1.53 7.82q-.75-.495-2.19-.75c-2.05-.36-4.28.84-6.74 3.59-2.09 2.33-3.75 4.84-4.97 7.57-1.57 6.72-3.2 13.44-4.88 20.15-1.46-.27-2.91-.54-4.36-.82 3.42-13.17 6.63-26.37 9.62-39.58 1.34.26 2.67.51 4.02.77-.72 3.31-1.45 6.61-2.2 9.92 1.11-1.76 2.22-3.28 3.35-4.54 2.99-3.38 6.25-4.75 9.89-4.13ZM929.13 661.59c1.98-2.36 4.37-3.32 7.23-2.88 3.4.52 5.65 2.19 6.77 5.02 1.01 2.58 1.3 5.41.82 8.5-1.17 7.5-2.4 14.99-3.7 22.48-.45 2.62-.22 4.72.72 6.31-1.79-.24-3.57-.49-5.36-.74-.42-1.03-.42-2.62-.03-4.76-2.86 3.25-6.04 4.62-9.44 4.09-2.81-.43-4.7-1.96-5.65-4.57-.86-2.34-.97-4.94-.36-7.78.71-3.31 1.92-5.93 3.62-7.85 1.89-2.13 4.17-3.36 6.83-3.68 1.78-.21 3.37-.58 4.76-1.1 1.96-.44 3.34-.97 4.16-1.58.31-1.9.16-3.63-.44-5.18q-.9-2.325-3.18-2.67c-1.93-.29-3.43.2-4.52 1.5-.73.86-1.38 2.1-1.97 3.72q-2.295-.36-4.59-.75c1.07-3.25 2.51-5.94 4.31-8.09Zm9.24 18.24c-.94.36-1.79.6-2.54.73-2.6.6-4.58 1.02-5.96 1.3-1.24.3-2.23.88-2.99 1.73a8 8 0 0 0-1.86 3.74c-.34 1.66-.27 3.14.22 4.44.29.78 1.17 1.28 2.63 1.51 2.48.38 4.79-.62 6.87-3 1.32-1.51 2.11-2.62 2.38-3.31.42-2.38.83-4.75 1.24-7.13ZM950 661.39l4.34.57c.31 10.22.6 20.44.88 30.66a735 735 0 0 0 8.89-29.48l4.59.51c.69 10.22 1.38 20.43 2.05 30.65 2.82-9.88 5.42-19.76 7.8-29.66 1.47.14 2.95.27 4.42.4a715 715 0 0 1-11.18 40.24l-4.32-.42c-.63-11.07-1.28-22.14-1.93-33.22q-4.53 16.005-9.84 31.95c-1.43-.16-2.86-.33-4.28-.51-.46-13.9-.92-27.79-1.4-41.69ZM987.4 665.4l4.23.33q-1.005 20.115-2.64 40.26c-1.53-.11-3.06-.23-4.58-.35 1.21-13.42 2.2-26.83 2.99-40.24Zm1.05-20.83c1.35.11 2.7.22 4.05.32-.1 3.11-.22 6.23-.35 9.34-1.38-.11-2.76-.21-4.13-.33.15-3.11.3-6.22.43-9.34ZM1000.97 706.77c-1.54-.09-3.08-.18-4.61-.28.9-13.43 1.59-26.86 2.07-40.28l4.26.27c-.07 2.4-.14 4.79-.22 7.19 2.77-5.12 5.49-7.61 8.34-7.47s5.13 1.68 6.87 4.62c1.16 1.97 1.75 4.27 1.74 6.9-.01 9.96-.14 19.92-.38 29.89l-4.65-.18c.31-9.24.51-18.49.62-27.72.02-2.16-.4-3.98-1.26-5.45-.86-1.48-2.08-2.25-3.66-2.33-1.44-.07-2.9 1.05-4.41 3.37-2.27 3.48-3.52 7.25-3.7 11.32-.29 6.72-.63 13.43-1.02 20.15ZM1028.75 670.82c1.53-2.6 3.5-3.87 5.96-3.83 2.31.04 4.38 1.27 6.25 3.68 1.34-2.38 3.01-3.57 5.05-3.57h1.96c.15 2.28.29 4.55.42 6.83-1.84-1.2-3.82-1.32-5.98-.38 1.13 2.16 1.78 4.68 1.91 7.56.2 4.32-.49 7.79-2.08 10.42-1.44 2.39-3.64 3.57-6.53 3.53-1.53-.02-3.14-.65-4.82-1.89-.75.95-1.13 1.9-1.12 2.86 0 .72.16 1.33.47 1.81.77 1.22 2.54 1.98 5.31 2.26 2.47.28 5.1.55 7.89.8 1.56.49 2.75 1.33 3.57 2.53 1.3 1.92 2.01 4.21 2.09 6.84.09 2.88-.49 5.28-1.73 7.21-1.7 2.64-5.56 3.96-11.48 3.88-4.97-.07-8.3-1.49-9.99-4.17-1.08-1.71-1.59-3.77-1.54-6.17q.045-2.52 1.23-4.29c.63-.94 1.57-1.88 2.81-2.81-.46-.49-1-1.22-1.61-2.2-.77-1.22-1.14-2.79-1.13-4.71 0-2.4 1.16-4.65 3.4-6.75-1.68-2.68-2.51-5.82-2.55-9.42-.04-4.08.71-7.41 2.25-10.01Zm3.13 34.99c-1.09.46-1.87 1.04-2.34 1.75-.63.95-.95 2.02-.96 3.22s.29 2.29.91 3.27c.93 1.46 2.98 2.23 6.16 2.28 4.29.06 6.99-.77 8.07-2.44.61-.96.91-1.92.89-2.88s-.27-1.8-.76-2.53c-.65-.96-1.76-1.45-3.32-1.47-3.76-.27-6.64-.68-8.66-1.21Zm.47-30.95c-.98 1.66-1.45 3.69-1.41 6.08.05 2.4.52 4.33 1.45 5.79.92 1.46 1.99 2.2 3.2 2.22 1.36.02 2.4-.56 3.12-1.76.86-1.43 1.24-3.46 1.15-6.1-.09-2.39-.69-4.44-1.78-6.13-.78-1.21-1.83-1.82-3.14-1.84-1.02-.02-1.88.57-2.58 1.75ZM1069.01 653.51c1.43-.04 2.86-.09 4.29-.14.6 4.65 1.18 9.31 1.73 13.96 2.5-.09 5.01-.19 7.53-.31l.75 5.73c-2.54.12-5.08.22-7.61.31.88 7.77 1.7 15.54 2.44 23.33.14 1.44.65 2.74 1.55 3.91.72.94 1.79 1.37 3.21 1.31q3.315-.135 5.64-2.79c.25 2.27.5 4.55.74 6.82-1.6 1.52-3.45 2.33-5.52 2.42-3.19.14-5.59-.86-7.2-2.97-1.78-2.34-2.78-4.96-3.03-7.83-.69-8.03-1.46-16.05-2.3-24.06-1.78.05-3.57.1-5.35.14-.18-1.91-.37-3.83-.55-5.74 1.76-.04 3.52-.09 5.29-.14-.51-4.66-1.05-9.32-1.61-13.97ZM1092.14 671.22c1.72-3.7 4.17-5.66 7.43-5.88 3.27-.22 6.33 1.35 9.24 4.74 3.29 3.84 5.54 8.84 6.63 15.02 1.09 6.19.61 11.43-1.47 15.7-1.84 3.77-4.57 5.79-8.11 6.04-3.54.24-6.74-1.36-9.56-4.81-3.2-3.91-5.12-8.98-5.91-15.2-.79-6.21-.19-11.41 1.76-15.61Zm4.42 3.71c-1.38 2.97-1.75 6.84-1.09 11.62.65 4.78 1.99 8.43 4.08 10.95 1.7 2.06 3.52 3.03 5.42 2.9 1.91-.13 3.43-1.33 4.52-3.58 1.34-2.75 1.62-6.52.83-11.28s-2.37-8.5-4.67-11.22c-1.54-1.81-3.2-2.66-5.01-2.53q-2.7.18-4.08 3.15ZM1121.49 668.99c1.54-3.77 3.91-5.81 7.22-6.16 3.3-.35 6.5 1.11 9.63 4.38 3.54 3.71 6.1 8.62 7.54 14.76 1.44 6.15 1.24 11.4-.64 15.75-1.66 3.84-4.32 5.97-7.89 6.35s-6.9-1.11-9.95-4.45c-3.46-3.78-5.69-8.78-6.83-14.97-1.14-6.18-.82-11.4.93-15.67Zm4.69 3.53c-1.23 3.03-1.4 6.91-.47 11.66s2.48 8.35 4.73 10.79c1.84 2 3.73 2.89 5.66 2.69 1.92-.2 3.4-1.46 4.39-3.76 1.21-2.81 1.28-6.58.22-11.32-1.06-4.73-2.87-8.4-5.35-11.04-1.66-1.75-3.39-2.53-5.22-2.34s-3.14 1.3-3.96 3.31ZM1141.79 640.59l4.36-.57c5.8 20 11.11 40.11 15.94 60.32-1.63.22-3.26.44-4.89.65-4.65-20.24-9.79-40.38-15.41-60.4ZM1162.34 662.95c1.03-3.08 3.18-4.87 6.53-5.39 3.65-.57 6.72.27 9.23 2.55 2.28 2.07 3.89 4.5 4.78 7.3q-2.34.405-4.68.78c-.66-1.6-1.33-2.72-2.02-3.35-1.36-1.25-3.28-1.67-5.73-1.29-1.54.24-2.56 1.13-3.08 2.68-.43 1.29-.44 2.64-.04 4.04.27.94.74 1.72 1.41 2.35.89.84 3.15 1.61 6.8 2.25 2.25.38 4.2.8 5.84 1.26q2.22.735 3.6 1.98 2.775 2.49 3.96 6.33c.86 2.81.82 5.53-.12 8.14-1.13 3.14-3.79 5.07-7.89 5.71-4.11.65-7.51-.31-10.19-2.85-2.24-2.11-3.8-4.95-4.73-8.48 1.6-.23 3.2-.47 4.8-.71.73 2.09 1.55 3.57 2.45 4.4 1.57 1.48 3.5 2.04 5.78 1.68 2.76-.44 4.43-1.45 5-3.02.38-1.04.36-2.27-.06-3.68-.27-.93-.99-1.92-2.14-2.96-.92-.83-2.16-1.36-3.73-1.6-3.14-.47-5.51-.97-7.13-1.46-1.94-.44-3.46-1.19-4.57-2.25-2-1.91-3.31-4.04-3.96-6.38-.85-3.05-.88-5.73-.11-8.04Z" class="line4-cls-3"/></g></g></svg>