<svg xmlns="http://www.w3.org/2000/svg" id="Ebene_2" data-name="Ebene 2" viewBox="0 0 1931.1 777.16"><defs><style>.line2-cls-1{fill:#ed1e79;stroke:#000;stroke-width:6px;stroke-miterlimit:10}.line2-cls-3{stroke-miterlimit:10;fill:#fff;stroke:#f0f}</style></defs><g id="Ebene_1-2" data-name="Ebene 1"><g id="line2"><path d="m72.78 3-26.6.86c-4.97.46-15.16 2.02-24.69 8.55C11.43 19.3-.78 33.59 4.12 47.7c2.42 6.96 8.28 12.64 15.3 16.36 8.7 4.61 56.07 8.6 70.14 9.82L39.87 68.6" style="stroke:#000;stroke-width:6px;stroke-miterlimit:10;fill:none"/><g id="line2-2" data-name="line2"><path d="M48.74 43.34c3.95-4.68 15.71-16.46 60.46-17.24 36.92-.64 106.06-2.03 151.71 44.24 35.02 35.49 42.6 87.03 54.55 133.52 10.14 39.55 24.74 78.14 48.29 111.76 31.5 46.54 84.05 85.17 142.08 66.48 100.31-31.2 130.29-173.55 236.28-182.39 70.09-5.54 126.99 44.48 149.79 108.17 13.89 35.8 21.08 75.52 23.78 114.21 2.91 35.85.24 74.51 12.22 106.78 33.49 88.49 165.81 96.49 245.97 79.83 211.88-37.32 329.45-305.39 528.07-218.5 54.45 21.47 95.51 64.77 125.86 114.44 26.28 41.74 48.3 85.37 64.38 131.77 10.81 33.63 23.42 69.78 13.6 104.05-8.67 29.85-42.19 44.82-67.31 24.08-25.52-21.88-29.28-66.3-39.37-97.47-15.44-51.4-51.17-131-94.58-163.02-30.09-22.89-70.89-24.04-105.55-11.61-58.49 20.09-95.34 72.16-140.43 111.35-33 29.21-70.3 54.48-110.02 74.1-96.65 49.05-206.34 61.73-313.77 56.74-37.98-1.61-78.19-4.77-114.19-15.61-69.1-19.04-123.13-80.82-123.24-153.75 0-45.69 19.45-91.61 25.2-138.12 4.21-30.2 4.44-64.77-9.45-91.73-11.08-22.84-34.94-40.52-61.04-37.89-31.94 3.06-54.44 27.77-74.31 52.23-26.34 32.83-50.77 69.31-81.11 96.98-74.43 71.01-203.18 71.91-276.71-.67-37.77-35.61-58.56-86.67-65.4-137.64-8.12-49.1-1.79-100.01-16.41-147.81-3.27-10.71-31.6-61.47-75.82-67.41-48.72-6.55-77.47 47.78-104.43 34.55-16.64-8.17-32.79-56.38-9.09-84.42Z" class="line2-cls-1"/><path d="M1887.88 756.32c-22.61-3.14-41.42-32.14-51.51-54.1-18.78-40.92-30.27-86.73-53.68-125.81-44.91-79.87-120.12-114.24-203.08-65.12-60.34 35.88-106.47 91.79-165.66 129.71-107.41 72.67-238.6 98.33-367.02 93.7-69.14-2.77-145.93-12.57-199.21-60.01-46.5-40.24-58.7-101.44-52.15-160.27 4.48-53.84 22.17-108.82 5.7-161.48-10.26-32.86-35.58-56.47-69.33-51.03-83.37 15.82-118.51 141.46-234.96 176.66-117.76 36.34-230.08-34.31-261.26-151.33-19.89-63.69-11.36-135.02-44.34-193.98-22.99-41.67-67.6-51.71-109.5-55.16.43-.05 6.67.15 17.22 1.35C234.5 91.57 208.23 227.37 236.06 324.3c30.13 119.36 141.55 189.27 261.11 152.81 40.85-12.71 76.61-39.17 106.36-69.87 41.47-40.26 88.49-120.6 154.26-104.98 23.91 7.76 37.57 27.32 45.61 53.51 11.79 41.28 3.15 83.55-2.75 125.77-5.94 40.75-9.54 83.42 3.05 123.24 36.5 116.95 177.48 131.18 282.63 128.91 92.26-1.41 183.04-17.95 265.59-58.33 42.05-20.28 80.88-46.61 116.42-76.86 59.32-48.27 121.04-120.1 204.12-111.37 61.45 8.18 101.17 63.83 126.13 118.4 22.19 44.34 35.29 121.13 78.49 146.41 19.38 11.04 38.8-3.37 45.17-25.02 5.84-17.48 5.9-36.9 3.22-55.2-4.92-33.34-19.05-68.47-33.68-99.8-35.83-76.55-88.92-151.76-168.82-185.51-158.69-68.94-272.35 77.86-397.96 152.98-78.52 48.9-172.73 79.59-265.64 64.88-37.44-5.98-74.59-20.31-101.29-47.54-78.18-80.27-22.19-221.37-119.64-322.03-61.96-63.25-146.7-50.55-207.06 8.72-54.4 50.54-109.76 129.4-192.39 120.52-67.78-9.23-109.87-75.69-133.96-134.46-24.02-58.41-33.46-121.1-74.92-168.56C187.83 11.5 122.98 5.23 67.57 3.27c87.46-.6 156.46 20.76 195.13 107.2 24.39 53.53 35.4 116.37 67.16 167.55 31.01 53.47 88.34 97.5 152.5 80.75 82.72-20.83 123.41-113.52 196.52-151.06 95.04-49.58 182.06 19.61 210.38 111.7 22.94 65.34 15.09 139.88 44.83 201.71 46.69 92.85 171.67 96.58 260.92 73.79 38.59-10 76.09-26.38 110.92-46.18 109.88-61.01 183.2-153.1 294.22-178.14 121.26-23.69 223.44 65.7 275.91 168.05 26.22 50.74 56.33 111.08 51.54 168.65-3.18 25.59-13.9 50.88-39.61 49.04h-.1Z" class="line2-cls-1"/><path d="M844.97 526.03c5.61-4.01 10.56-6.19 14.85-6.6 3.48-.32 6.02.43 7.67 2.33 2.02 2.32 2.53 5.05 1.55 8.26s-3.06 6.19-6.31 8.89c-4.11 3.4-8.49 5.55-13.18 6.32-4.41.75-8.83 1.29-13.25 1.61-2.44.23-4.9.43-7.36.61-2.19.17-4.27.44-6.26.83 3.91 4.74 7.93 9.36 12.05 13.87-1.68 1.29-3.37 2.58-5.06 3.86-5.7-6.25-11.2-12.72-16.5-19.4 1.59-1.04 3.18-2.08 4.76-3.13 2.06-.98 5.54-1.61 10.36-2.04 7.48-.34 13.57-.91 18.37-1.5 4.89-.47 9.05-2.16 12.52-4.94 2.08-1.67 3.42-3.5 4.05-5.48.47-1.48.28-2.7-.56-3.67q-1.125-1.29-3.54-1.05c-2.97.29-6.58 2.02-10.88 5.19-1.1-1.32-2.2-2.64-3.28-3.98ZM840.17 566.53c1.28 1.35 2.58 2.7 3.88 4.03-1.89 1.57-3.79 3.12-5.69 4.68-1.33-1.36-2.64-2.73-3.95-4.12 1.93-1.52 3.85-3.05 5.77-4.59ZM869.59 553.69c1.16 1.15 2.33 2.28 3.5 3.41-5.33 8.59-10.59 17.23-15.77 25.92 9.44-4.74 18.64-9.79 27.56-15.13 1.23 1.07 2.46 2.13 3.7 3.18a423 423 0 0 1-35.63 19.26c-1.22-1.11-2.42-2.24-3.62-3.37 6.62-11.18 13.38-22.27 20.27-33.27ZM891.67 577.53c2.93-.77 5.57-.21 8.01 1.69 2.9 2.26 4.23 4.78 3.98 7.63-.24 2.59-1.26 5.01-3.12 7.23a982 982 0 0 1-13.73 15.99c-1.62 1.85-2.36 3.65-2.19 5.44-1.58-1.16-3.16-2.34-4.72-3.53.08-1.06.8-2.33 2.14-3.82-4.18 1.01-7.8.31-10.74-2.06-2.43-1.96-3.49-4.28-3.17-6.91.29-2.37 1.39-4.5 3.27-6.4 2.2-2.22 4.53-3.59 7.01-4.14 2.75-.61 5.42-.29 8.04.95 1.75.83 3.4 1.41 4.94 1.76 2.02.72 3.56 1.05 4.61 1.01 1.17-1.35 1.82-2.8 1.97-4.36s-.42-2.84-1.72-3.85c-1.66-1.29-3.27-1.72-4.88-1.3q-1.605.42-3.54 1.86c-1.3-1.05-2.6-2.12-3.89-3.19 2.5-1.97 5.08-3.29 7.74-4Zm.16 19.62c-1.04-.23-1.94-.5-2.71-.81-2.7-.95-4.75-1.72-6.15-2.28-1.29-.46-2.48-.56-3.58-.31-1.38.31-2.53.95-3.46 1.92-1.08 1.13-1.7 2.34-1.85 3.66-.09.79.49 1.69 1.76 2.7 2.15 1.72 4.77 2.21 7.81 1.46 1.93-.48 3.18-.93 3.75-1.33 1.48-1.67 2.96-3.34 4.43-5.02ZM926.95 598.37q-2.13 2.985-4.29 5.97c-.38-.5-1.01-1.04-1.89-1.6-1.9-1.22-4.51-1.2-7.92-.01-2.89 1.01-5.42 2.37-7.6 4.11-3.96 4.97-7.97 9.9-12.04 14.8-1.35-.93-2.68-1.87-4.02-2.82 8.11-9.52 16.02-19.18 23.74-28.97 1.21.85 2.42 1.68 3.64 2.52-1.9 2.47-3.81 4.94-5.73 7.39q2.58-1.47 4.92-2.31c4.14-1.5 7.83-1.2 11.19.92ZM929.94 601.02c1.26.77 2.52 1.54 3.79 2.29-6.99 10.32-14.18 20.53-21.58 30.62-1.4-.85-2.79-1.71-4.18-2.58 7.52-9.99 14.85-20.11 21.97-30.34Zm10.91-15.99c1.19.73 2.38 1.44 3.58 2.15-1.57 2.42-3.16 4.84-4.75 7.25-1.23-.73-2.45-1.47-3.67-2.21 1.63-2.39 3.24-4.79 4.85-7.19ZM940.55 610.72c2.75-1.26 5.46-1.16 8.19.29 3.25 1.73 5 3.98 5.23 6.83.21 2.59-.39 5.15-1.84 7.65-3.54 6.06-7.14 12.1-10.8 18.1-1.28 2.1-1.7 4-1.23 5.73-1.76-.87-3.51-1.76-5.26-2.67-.11-1.05.39-2.43 1.46-4.13-3.94 1.72-7.63 1.65-10.93-.17-2.73-1.51-4.16-3.61-4.29-6.25-.12-2.38.6-4.66 2.13-6.86 1.78-2.57 3.85-4.32 6.19-5.29 2.6-1.07 5.28-1.22 8.08-.45 1.87.51 3.59.81 5.17.88 2.12.36 3.69.42 4.72.2.92-1.53 1.31-3.08 1.2-4.64-.12-1.56-.9-2.72-2.36-3.49-1.86-.99-3.52-1.13-5.03-.44-1.01.46-2.07 1.28-3.17 2.44q-2.205-1.215-4.38-2.46c2.12-2.37 4.44-4.12 6.94-5.27Zm3.51 19.29c-1.07-.04-2-.16-2.81-.33-2.82-.48-4.98-.88-6.45-1.18-1.35-.23-2.54-.12-3.58.31-1.31.55-2.33 1.37-3.08 2.48-.87 1.3-1.28 2.6-1.19 3.92.05.79.78 1.58 2.19 2.36 2.4 1.32 5.07 1.35 7.94.09 1.82-.8 2.97-1.46 3.47-1.96 1.17-1.9 2.34-3.8 3.5-5.7ZM972.7 601.73c1.27.59 2.54 1.17 3.81 1.75-3.6 7.15-7.28 14.26-11.05 21.34 3.45-2.34 6.41-2.97 8.99-1.86 2.71 1.16 4.33 3.4 4.89 6.74.67 4.11-.36 9.19-3.28 15.21-2.83 5.82-6.26 9.85-10.3 12.03-3.29 1.77-6.56 1.96-9.72.57-3.31-1.46-4.75-4.08-4.3-7.79-.77 1.36-1.55 2.72-2.33 4.07-1.49-.69-2.97-1.39-4.45-2.1 9.74-16.43 18.99-33.09 27.74-49.96Zm-7.27 27.47c-2.19 1.21-4.14 3.38-5.86 6.5-.64 1.17-1.29 2.34-1.94 3.52-1.62 2.93-2.28 5.69-1.9 8.3.34 2.35 1.4 3.93 3.18 4.71 1.48.65 3.12.51 4.88-.44 2.77-1.48 5.26-4.43 7.47-8.81 2.3-4.58 3.21-8.17 2.81-10.75-.33-2.06-1.17-3.39-2.55-3.98-1.66-.71-3.68-.39-6.1.96ZM998.1 612.29c1.32.48 2.64.96 3.97 1.43-7.11 17.63-14.73 35.1-22.85 52.38-1.55-.56-3.09-1.14-4.62-1.72 8.34-17.18 16.18-34.56 23.51-52.09ZM1002.79 638.94c3.16-2.25 6.25-2.9 9.4-1.97 3 .89 5.02 3.19 6.13 6.95 1.02 3.51.54 8.32-1.6 14.42-6.16-1.65-12.27-3.45-18.32-5.41-1.78 4.33-2.37 7.77-1.68 10.32.61 2.3 2.02 3.79 4.2 4.45s3.99.49 5.41-.49c1.65-1.14 2.82-2.66 3.52-4.55 1.69.48 3.39.95 5.09 1.4-1.97 3.62-4.03 6.17-6.16 7.66-3.07 2.15-6.48 2.67-10.12 1.57-3.8-1.16-6.22-3.7-7.21-7.55-1.07-4.1-.34-8.91 2.03-14.45 2.36-5.54 5.48-9.64 9.32-12.37Zm1.9 4.46c-1.59 1.13-2.95 2.69-4.07 4.66 4.2 1.35 8.43 2.63 12.68 3.83.76-2.09.84-4.15.27-6.16q-.75-2.64-3.57-3.48c-1.74-.52-3.5-.13-5.31 1.16ZM1029.85 645.85c2.56-2.13 5.41-2.84 8.63-2.14 3.52.76 5.78 2.44 6.8 5.13.92 2.44 1.08 4.96.39 7.54-1.52-.29-3.05-.58-4.56-.89.26-1.53.26-2.67-.02-3.41-.55-1.47-2.01-2.45-4.39-2.97-1.49-.32-2.87.05-4.15 1.13-1.07.9-1.8 1.98-2.2 3.26-.26.85-.27 1.65-.01 2.39.34.99 1.94 2.4 4.85 4.16 1.81 1.07 3.32 2.06 4.54 2.99 1.06.89 1.78 1.83 2.17 2.81.77 1.96.85 4.12.19 6.49-.72 2.58-2.19 4.8-4.43 6.62-2.69 2.19-6.12 2.86-10.17 1.95-4.06-.91-6.62-2.91-7.66-5.91-.87-2.51-.73-5.34.35-8.51 1.56.39 3.12.78 4.69 1.15-.47 1.95-.53 3.42-.18 4.42.62 1.75 2.05 2.88 4.29 3.38 2.72.61 4.76.35 6.11-.74.89-.72 1.53-1.73 1.91-3.02.25-.85.13-1.9-.34-3.13-.38-.98-1.21-1.84-2.48-2.57-2.56-1.45-4.41-2.68-5.6-3.64-1.5-1.03-2.45-2.17-2.87-3.42-.76-2.24-.77-4.42-.09-6.54.89-2.75 2.31-4.92 4.22-6.52ZM1064.1 632.43c2.24-2.37 4.39-3.42 6.52-3.14 2.41.31 4.15 1.63 5.23 3.98 1.18 2.59 1.52 5.64.94 9.15-.66 3.95-2.12 7.15-4.42 9.57-1.73 1.81-4.07 3.44-7.04 4.84 2.52 8.41 5.04 13.86 7.35 16.34 1.43-2.31 2.56-5.77 3.38-10.38 1.64.17 3.29.32 4.93.47-.99 5.05-2.7 9.81-5.19 14.26 1.62 1.95 3.21 3.32 4.74 4.12-1.05 2.14-2.11 4.28-3.19 6.42-1.09-.55-3.02-2.51-5.69-5.93-3.91 3.6-8.62 5.07-13.92 4.31-4.48-.64-7.48-2.71-8.96-6.12-1.49-3.41-1.67-7.06-.66-10.95 1.18-4.54 3.45-8.31 6.72-11.39 1.43-1.34 3.16-2.65 5.17-3.92-1.12-4.89-1.25-9.07-.5-12.55.8-3.7 2.34-6.72 4.58-9.08Zm-10.74 37.82c-.59 2.39-.47 4.55.4 6.48.97 2.18 2.77 3.47 5.38 3.84 3.76.53 7-.42 9.66-2.79-3.07-5.28-5.65-11.57-7.71-18.83-.92.54-1.88 1.3-2.9 2.27-2.25 2.14-3.87 5.14-4.82 9.04Zm13.06-33.79c-1.12 1.19-1.97 3.2-2.55 6.04-.53 2.62-.44 5.78.36 9.48 2.09-1.06 3.7-2.2 4.85-3.4 1.73-1.8 2.8-3.91 3.23-6.32.35-1.97.2-3.67-.44-5.09-.54-1.18-1.37-1.85-2.53-2q-1.515-.195-2.91 1.29ZM1086.14 701.15c-1.73-.12-3.46-.24-5.19-.38 3.04-16.39 5.68-32.82 7.92-49.26 1.52.11 3.05.2 4.58.29l-.54 4.31c2.28-3.21 4.82-4.75 7.72-4.65 3.21.12 5.67 1.61 7.44 4.53 2.17 3.59 3.05 8.59 2.47 15.04-.6 6.67-2.44 11.78-5.54 15.27-2.52 2.84-5.59 4.2-9.14 4.04s-5.9-2.09-7-5.73c-.86 5.52-1.77 11.03-2.72 16.55Zm8.6-40.94c-1.84 2.13-2.99 4.74-3.42 7.83l-.66 4.64c-.45 3.1.03 5.91 1.49 8.44 1.2 2.07 2.72 3.15 4.55 3.23 1.66.07 3.18-.65 4.54-2.17 2.12-2.38 3.45-6.13 3.99-11.24.51-4.88.05-8.45-1.29-10.71-1.08-1.81-2.38-2.74-3.93-2.79-1.86-.07-3.6.85-5.26 2.77ZM1121.17 655.28c1.84-2.48 4.34-3.77 7.58-3.91 3.85-.16 6.62.89 8.32 3.23 1.54 2.13 2.32 4.64 2.3 7.54-.07 7.03-.21 14.06-.43 21.1-.07 2.46.53 4.31 1.86 5.56-2.05.14-4.09.26-6.14.37-.64-.86-.91-2.29-.82-4.3-2.67 3.48-6.03 5.29-9.95 5.39-3.24.08-5.62-1-7.1-3.22-1.34-1.99-1.88-4.33-1.65-7 .27-3.11 1.22-5.68 2.83-7.7 1.79-2.24 4.13-3.73 7.07-4.48 1.95-.5 3.67-1.13 5.14-1.86 2.11-.76 3.57-1.51 4.39-2.22.04-1.78-.4-3.32-1.32-4.61s-2.23-1.89-3.96-1.81c-2.2.09-3.79.81-4.79 2.17-.67.91-1.21 2.15-1.61 3.71-1.75.04-3.5.07-5.24.09.69-3.12 1.87-5.8 3.54-8.06Zm13.22 14.86c-.99.5-1.9.88-2.72 1.14-2.8 1.03-4.96 1.76-6.46 2.25-1.34.49-2.36 1.18-3.07 2.08-.9 1.13-1.39 2.36-1.49 3.7-.11 1.56.2 2.89.96 3.99.45.66 1.52.97 3.2.92 2.85-.08 5.28-1.4 7.23-3.95 1.23-1.61 1.93-2.77 2.13-3.45.08-2.23.15-4.46.22-6.69ZM1163.84 648.19c.16 2.45.32 4.9.46 7.35-.65-.13-1.52-.13-2.63.02-2.37.31-4.51 2.03-6.49 5.16-1.68 2.65-2.85 5.34-3.46 8.09.09 6.36.12 12.73.1 19.11-1.71.16-3.42.32-5.12.46.21-12.52.19-25.03-.06-37.51 1.55-.14 3.11-.29 4.66-.46.1 3.12.19 6.24.26 9.36.75-1.86 1.58-3.52 2.48-4.96 2.4-3.84 5.62-6.02 9.81-6.61ZM1170.66 650.88c1.53-2.72 3.89-4.34 7.15-4.93 3.87-.7 6.8-.04 8.83 2.04 1.83 1.9 2.95 4.28 3.31 7.16.85 6.98 1.62 13.98 2.33 20.99.25 2.45 1.1 4.21 2.61 5.26-2.05.42-4.1.83-6.15 1.22-.76-.76-1.22-2.15-1.39-4.15-2.24 3.82-5.39 6.09-9.33 6.73-3.26.53-5.8-.22-7.59-2.21-1.62-1.79-2.47-4.03-2.59-6.71-.14-3.12.48-5.8 1.84-8.02 1.51-2.47 3.68-4.27 6.54-5.42 1.91-.77 3.56-1.63 4.95-2.56 2.03-1.05 3.41-2 4.14-2.82-.19-1.78-.84-3.23-1.94-4.38-1.09-1.15-2.5-1.56-4.24-1.25-2.21.4-3.72 1.33-4.56 2.82-.56 1-.94 2.3-1.13 3.91-1.76.29-3.52.56-5.28.82.28-3.19 1.12-6.01 2.51-8.48Zm15.3 12.89c-.93.64-1.8 1.14-2.6 1.51-2.7 1.41-4.78 2.44-6.22 3.13q-1.92 1.005-2.82 2.49c-.75 1.25-1.09 2.54-1.01 3.88.09 1.56.58 2.84 1.49 3.82.54.59 1.66.75 3.35.47 2.87-.47 5.14-2.12 6.77-4.92 1.03-1.77 1.59-3.02 1.69-3.72-.21-2.23-.43-4.45-.65-6.67ZM1206.13 678.89c-1.7.4-3.41.8-5.11 1.18-1.44-12.45-3.09-24.86-4.97-37.21 1.55-.36 3.1-.73 4.65-1.12.31 1.87.61 3.74.91 5.62 1.38-4.69 3.31-7.37 5.94-8.07 2.93-.79 5.38-.33 7.38 1.41 1 .87 1.86 1.89 2.6 3.07 1.11-5.19 3.36-8.31 6.89-9.44 2.46-.79 4.61-.45 6.48 1.03 2.07 1.65 3.46 3.76 4.09 6.36 2.2 9.01 4.29 18.06 6.25 27.15-1.69.57-3.37 1.12-5.06 1.66-1.76-8.67-3.63-17.31-5.61-25.91-.3-1.31-.87-2.29-1.7-2.96-1.24-1-2.48-1.3-3.73-.9-2.19.69-3.77 2.22-4.78 4.62-.9 2.13-1.22 3.96-.92 5.49 1.52 7.79 2.95 15.6 4.3 23.43-1.7.48-3.39.96-5.09 1.42-1.37-8.63-2.85-17.22-4.43-25.79-.24-1.32-.97-2.5-2.16-3.56q-1.485-1.32-3.84-.69c-1.73.46-3.07 1.72-4.05 3.8-1.1 2.34-1.54 4.39-1.27 6.16 1.17 7.73 2.25 15.48 3.24 23.26ZM1243.82 632.49c1.32-3.83 3.6-6.39 6.94-7.75 3.18-1.3 6.41-.86 9.75 1.33 3.11 2.05 5.73 6.11 7.73 12.29a382 382 0 0 1-19.35 7.92c1.21 4.54 2.89 7.6 5.1 9.14 1.99 1.39 4.15 1.63 6.46.7 2.31-.92 3.77-2.25 4.38-3.95.7-1.98.76-3.94.18-5.87 1.77-.75 3.54-1.51 5.31-2.29q.855 6.195-.51 10.05c-1.31 3.71-3.92 6.37-7.77 7.89-4.02 1.59-7.71 1.19-11.01-1.15-3.53-2.5-5.95-6.72-7.43-12.57-1.48-5.86-1.38-11.09.22-15.74Zm4.49 2.22c-.66 1.93-.85 4.03-.58 6.3 4.5-1.71 8.99-3.51 13.45-5.41-.67-2.13-1.9-3.78-3.67-4.97-1.55-1.04-3.32-1.14-5.32-.33-1.85.75-3.13 2.22-3.88 4.41ZM1266.06 604.45c1.45-.7 2.89-1.4 4.34-2.12 1.61 4.05 3.19 8.1 4.75 12.17 2.54-1.26 5.07-2.54 7.6-3.86.68 1.66 1.35 3.31 2.01 4.98a371 371 0 0 1-7.7 3.9c2.56 6.8 5.06 13.64 7.48 20.5.45 1.27 1.25 2.24 2.44 2.9.94.53 2.14.44 3.6-.28 2.26-1.13 4.01-2.89 5.21-5.28.76 1.99 1.51 3.98 2.25 5.98-1.32 2.19-3.05 3.82-5.18 4.88-3.28 1.63-6 1.81-8.11.59-2.35-1.35-3.94-3.32-4.8-5.86-2.41-7.11-4.89-14.19-7.44-21.23-1.83.87-3.65 1.72-5.49 2.56q-.87-2.535-1.77-5.07c1.81-.83 3.61-1.67 5.41-2.53-1.51-4.09-3.04-8.17-4.6-12.23ZM1293.45 609.41c.84-4.03 2.82-6.96 6.03-8.86 3.06-1.81 6.39-1.9 10.06-.26 3.42 1.54 6.6 5.18 9.43 11.04-6.13 3.87-12.33 7.55-18.58 11.03 1.82 4.34 3.92 7.13 6.36 8.31 2.2 1.07 4.41.96 6.64-.33 2.22-1.29 3.53-2.85 3.92-4.65.46-2.09.26-4.06-.58-5.89 1.7-1.04 3.4-2.09 5.09-3.15 1.12 4.04 1.37 7.42.79 10.13-.84 3.92-3.15 7-6.84 9.14-3.86 2.23-7.66 2.42-11.31.61-3.9-1.93-6.91-5.76-9.17-11.37s-2.85-10.85-1.83-15.75Zm4.84 1.48c-.42 2.03-.34 4.16.23 6.39a396 396 0 0 0 12.94-7.57c-.95-2.03-2.42-3.48-4.37-4.38-1.71-.78-3.51-.61-5.44.53-1.78 1.05-2.89 2.72-3.37 5.04ZM1331.89 579.01c1.25 2.12 2.49 4.25 3.72 6.38-.68.23-1.53.71-2.53 1.44-2.15 1.56-3.44 4.26-3.95 8.14-.43 3.29-.35 6.32.29 9.12 2.94 5.67 5.83 11.38 8.67 17.12-1.57 1.05-3.14 2.08-4.71 3.11-5.44-11.34-11.07-22.57-16.91-33.66 1.43-.95 2.86-1.92 4.29-2.9 1.49 2.76 2.97 5.52 4.44 8.29-.11-2.08-.05-4.01.17-5.79.59-4.74 2.73-8.45 6.51-11.25ZM1339.21 578.51c.3-3.6 1.93-6.56 4.96-9 3.3-2.66 6.35-3.63 9.23-2.86 2.61.71 4.68 2.16 6.17 4.4-1.39 1.19-2.79 2.36-4.19 3.53q-1.485-1.8-2.67-2.13c-1.57-.44-3.46.26-5.68 2.05-1.4 1.12-2.16 2.57-2.3 4.38-.12 1.51.16 2.84.86 3.99.46.77 1.08 1.27 1.86 1.52 1.04.32 3.36-.21 6.95-1.67 2.22-.93 4.15-1.65 5.8-2.15 1.5-.38 2.79-.44 3.85-.17 2.12.55 3.86 1.84 5.2 3.92 1.46 2.27 2.06 4.98 1.78 8.11-.35 3.77-2.43 7.21-6.22 10.2s-7.3 3.95-10.44 2.97c-2.62-.82-4.74-2.72-6.39-5.65 1.49-1.11 2.98-2.23 4.47-3.37 1.16 1.64 2.27 2.62 3.32 2.93 1.83.56 3.81.02 5.91-1.64 2.54-2.01 3.9-3.98 4.08-5.85.12-1.24-.18-2.45-.89-3.59-.47-.76-1.38-1.31-2.7-1.67-1.06-.28-2.35-.08-3.9.58-3.09 1.35-5.46 2.21-7.11 2.65-1.95.67-3.57.79-4.86.37-2.33-.75-4.05-2.1-5.18-4.04-1.47-2.51-2.09-5.12-1.87-7.81Z" class="line2-cls-3"/></g><path d="m47.91 70.4 39.33 6.97s-32.25-6.43-39.33-6.97ZM54.83 72.04l-14.97-3.43" class="line2-cls-1"/></g></g></svg>