<svg xmlns="http://www.w3.org/2000/svg" data-name="Ebene 2" viewBox="0 0 1007.59 485.77"><g data-name="Ebene 1"><path d="M103.12 65.61C80.66 64.55 46 72.28 38.21 93.97c-2.24 6.23-6.88 16.58 19.22 57.02 13.02 20.17 27.08 40.5 33.49 63.93 7.74 27.25 4.72 56.85-.2 84.98-4.79 27.49-12.37 55.36-10.98 83.44 1.47 31.32 15.79 63.17 44.7 76.4 24.32 11.08 55.07 3.46 78.74-8.35 73.68-35.15 125.99-100.43 191.88-146.33 30.97-21.93 64.4-35.61 99.94-47.34 32.64-10.88 65.48-21.93 98.71-29.25 31.26-7.08 63.68-10.24 96.06-10.41 58.41-.6 118.35 6.61 170.19 35.03 26.47 13.31 51.8 31.32 81.46 35.84 44.13 6.96 70.91-33.44 61.16-74.54-7.49-33.92-34.25-60.57-64.2-76.26-72.42-38.33-191.19-36.06-271.23-28.26-66.57 7.22-133.68 24.1-197.21 50.17-43.6 17.93-82.13 39.57-122.16 66.04-24.25 16.03-47.31 32.72-70.26 50.18-22.92 17.16-65.72 52.71-88.01 18.8-10.38-17.06-8.9-45.29-7.3-68.31 1.6-23.03 3.17-48.11-1.58-75.5-4.08-23.53-8.76-50.5-31.54-68.9-18.76-15.16-39.81-16.44-45.96-16.73Z" style="fill:#ed1e79;stroke-miterlimit:10;stroke-width:6px;stroke:#000"/><path d="M17.63 51.7C-10.3 82.49 6.5 118.81 28.6 148.02c13.89 19.35 28.64 38.13 38.14 60.22 7.39 16.66 12.26 35 14.92 53.27 3.95 26.39 2.94 53.18-.59 79.51-4.4 32.76-9.56 66.94 4.57 97.41 16.51 38.68 57.23 52.63 96.11 39.61 65.53-21.15 99.59-84.85 146.3-130.88 44.05-44 99.98-77.82 156.68-101.44 36.06-13.93 83.92-20.23 124.76-22.49 35.58-1.81 71.49-1.05 106.32 3.46 34.09 4.45 63.29 12.41 94.83 23.25 23.13 7.97 44.49 18.24 67.08 28.35 29.2 13.23 69.37 24 94.79-1.05 17.6-17.24 22.37-45.95 14.48-70.3-13.09-40.4-47.57-69.24-84.4-90.63C849.19 86.55 791.13 75.35 730.37 83c-79.89 9.54-157.69 36.14-230.09 70.28-42.4 20.36-86.19 41.24-126.14 66.33-52.41 31.5-101.07 99.19-168.29 90.44-24.79-3.96-43.39-23.99-51.94-46.99-25.59-64.11 8.38-156.93-33.93-206.66C94.83 26.01 45.2 22.82 17.74 51.61l-.11.12Z" style="stroke-miterlimit:10;stroke-width:6px;stroke:#000;fill:none"/><path d="M225.22 70.43c-19.61 2.78-32.01 21.96-32.02 41.18-.38 17.57 5.72 34.28 10.67 51.37 5.68 17.94 9.08 36.97 13.1 55.31 7.96 36.07 31.81 50.71 62.97 25.85 13.06-10.39 26.36-24.59 39.55-35.91 31.56-27.62 69.34-49.07 108.02-63.79 27.99-10.53 56.44-17.58 85.07-28.16 25.59-9.5 58.19-23.04 59.63-53.54.66-14.15-6.28-28.95-19.12-35.59-34.58-19.07-117.76 24.16-149.25 42.82-18.83 11.42-36.39 23.95-54.59 36.33-17.36 11.26-35.86 26.34-57.18 24.61-34.74-4.43-24.43-65.74-66.69-60.51l-.16.02Z" style="stroke-miterlimit:10;stroke-width:6px;fill:#f0f;stroke:#7a6fb9"/><path d="M203.2 93.83c8.56-11.2 21.23-23.94 36.09-23.39 15.7.58 20.9 15.96 36 23.01 35.98 16.8 71.42-9.16 100.04-30.12 37.08-26.78 80.65-63.76 127.3-60.07 25.89 2.36 44.68 21.52 32.98 48-11.42 24.12-35.77 37.72-58.25 50.17-10.45 5.59-21.19 10.89-31.69 16.37-36.17 18.63-70.76 40.38-103.37 64.76-11.27 8.43-15.21 12.62-26.37 20.08-23.63 15.8-38.36 25.66-55.54 24.98-25.78-1.01-43.44-25-48.07-31.28-30.53-41.38-11.57-95.79-9.12-102.5Z" style="stroke-miterlimit:10;stroke-width:6px;stroke:#7a6fb9;fill:none"/></g></svg>