<svg xmlns="http://www.w3.org/2000/svg" data-name="Ebene 2" viewBox="0 0 618.01 274.1"><g data-name="Ebene 1"><path d="M40.88 13.68c37.11-20.19 77.87 21.31 104.64 45.01 14.28 12.86 29.42 25.91 45.61 37.01 45.99 31.95 96.91 46.54 151.79 45.41 33.24-.02 67.52-4.91 100.54-10.28 55.23-9.16 93.42-3.69 134.64 35.93 21.98 21.03 46.32 55.73 33.22 86-6.03 12.75-19.57 19.59-33.15 18.14-11.37-1.15-21.14-6.19-31.82-13.32-15.48-10.5-29.51-23.37-46.3-32.9-25.08-14.77-54.41-18.91-83.33-17.73-45.39 1.66-90.03 12.04-135.52 10.3-44.18-1.23-87.34-11.45-129.26-25.14-29.6-9.98-59.43-22.33-83.88-42.08-25.27-20.19-43.61-50.74-46.95-83.1-2.6-19.68 4.23-44.59 19.66-53.19l.13-.08Z" style="fill:#ed1e79;stroke:#000;stroke-miterlimit:10;stroke-width:6px"/><path d="M7.84 17.4C13.03 9.93 23.63 4.33 33.41 3.21c18.87-2.15 34.55 12.41 44.43 21.45 24.92 22.8 51.43 43.81 76.6 66.35 55.68 49.86 130.02 54.14 144 54.67 38.08 1.46 91.83-7.17 137.87-22.97 16.42-5.63 39.31-14.73 68.94-10.73 26.23 3.54 45.7 15.73 53.62 20.79 14.11 9.02 29.1 18.61 38.3 37.42 8.31 16.99 14.13 46.08 0 58.21-8.54 7.33-21.08 5.66-29.11 4.6-23.71-3.15-32.69-17.12-53.62-27.57-19.47-9.73-36.71-10.14-58.21-10.65-47.1-1.13-62.96 18.67-114.89 32.1-8.67 2.24-53.34 13.36-105.7 7.66-24.88-2.71-80.2-12.34-133.33-52.09C36.54 133.26-13.06 47.52 7.84 17.4Z" style="stroke:#000;stroke-miterlimit:10;stroke-width:6px;fill:none"/></g></svg>